<mxfile host="app.diagrams.net" modified="2021-09-11T02:55:11.116Z" agent="5.0 (Windows NT 10.0; Win64; x64) AppleWebKit/537.36 (KHTML, like Gecko) Chrome/93.0.4577.63 Safari/537.36" etag="pi9nSgEhc8uwUxoJEgsx" version="15.1.2" type="github">
  <diagram name="Page-1" id="c9db0220-8083-56f3-ca83-edcdcd058819">
    <mxGraphModel dx="1550" dy="777" grid="1" gridSize="10" guides="1" tooltips="1" connect="1" arrows="1" fold="1" page="1" pageScale="1.5" pageWidth="826" pageHeight="1169" background="#ffffff" math="0" shadow="0">
      <root>
        <mxCell id="0" style=";html=1;" />
        <mxCell id="1" style=";html=1;" parent="0" />
        <mxCell id="3d76a8aef4d5c911-1" value="" style="html=1;shadow=0;dashed=1;shape=mxgraph.bootstrap.rect;fillColor=#222222;whiteSpace=wrap;rounded=0;fontSize=12;fontColor=#000000;align=center;strokeColor=#D1D1D1;fontFamily=Righteous;fontSource=https%3A%2F%2Ffonts.googleapis.com%2Fcss%3Ffamily%3DRighteous;" parent="1" vertex="1">
          <mxGeometry x="40" y="70" width="1150" height="40" as="geometry" />
        </mxCell>
        <mxCell id="3d76a8aef4d5c911-2" value="RaceNow" style="html=1;shadow=0;dashed=0;fillColor=none;strokeColor=none;shape=mxgraph.bootstrap.rect;fontColor=#999999;fontSize=20;whiteSpace=wrap;fontFamily=Righteous;fontSource=https%3A%2F%2Ffonts.googleapis.com%2Fcss%3Ffamily%3DRighteous;" parent="3d76a8aef4d5c911-1" vertex="1">
          <mxGeometry width="115" height="40" as="geometry" />
        </mxCell>
        <mxCell id="3d76a8aef4d5c911-10" value="ログイン" style="html=1;shadow=0;dashed=0;fillColor=none;strokeColor=none;shape=mxgraph.bootstrap.rect;fontColor=#999999;whiteSpace=wrap;" parent="3d76a8aef4d5c911-1" vertex="1">
          <mxGeometry x="1049.375" width="100.625" height="40" as="geometry" />
        </mxCell>
        <mxCell id="FAvYL7a3MEpKTh5j457e-6" value="レース検索" style="html=1;shadow=0;dashed=0;shape=mxgraph.bootstrap.rect;fillColor=#000000;fontColor=#ffffff;spacingRight=30;whiteSpace=wrap;strokeColor=#B3B3B3;" parent="3d76a8aef4d5c911-1" vertex="1">
          <mxGeometry x="140" width="129.375" height="40" as="geometry" />
        </mxCell>
        <mxCell id="FAvYL7a3MEpKTh5j457e-44" value="お問い合わせ" style="html=1;shadow=0;dashed=0;shape=mxgraph.bootstrap.rect;fillColor=#000000;fontColor=#ffffff;spacingRight=30;whiteSpace=wrap;strokeColor=#B3B3B3;" parent="3d76a8aef4d5c911-1" vertex="1">
          <mxGeometry x="269.38" width="129.375" height="40" as="geometry" />
        </mxCell>
        <mxCell id="FAvYL7a3MEpKTh5j457e-7" value="" style="rounded=0;whiteSpace=wrap;html=1;dashed=1;strokeColor=#36393d;fontColor=#FF4747;fillColor=#E3E3E3;" parent="1" vertex="1">
          <mxGeometry x="40" y="110" width="1150" height="220" as="geometry" />
        </mxCell>
        <mxCell id="FAvYL7a3MEpKTh5j457e-8" value="&lt;h2 style=&quot;font-size: 36px;&quot;&gt;&lt;span style=&quot;font-size: 36px;&quot;&gt;Wellcom to RaceNow!&lt;/span&gt;&lt;/h2&gt;" style="text;html=1;strokeColor=none;fillColor=none;align=center;verticalAlign=middle;whiteSpace=wrap;rounded=0;dashed=1;fontSize=36;fontStyle=1;fontFamily=Permanent Marker;fontSource=https%3A%2F%2Ffonts.googleapis.com%2Fcss%3Ffamily%3DPermanent%2BMarker;" parent="1" vertex="1">
          <mxGeometry x="100" y="150" width="420" height="80" as="geometry" />
        </mxCell>
        <mxCell id="FAvYL7a3MEpKTh5j457e-9" value="RaceNowは、様々なレースのリザルト、実況が閲覧できるWebページです。" style="text;html=1;strokeColor=none;fillColor=none;align=center;verticalAlign=middle;whiteSpace=wrap;rounded=0;dashed=1;" parent="1" vertex="1">
          <mxGeometry x="100" y="210" width="430" height="20" as="geometry" />
        </mxCell>
        <mxCell id="FAvYL7a3MEpKTh5j457e-11" value="" style="shape=image;verticalLabelPosition=bottom;labelBackgroundColor=#ffffff;verticalAlign=top;aspect=fixed;imageAspect=0;image=data:image/svg+xml,PHN2ZyB4bWxucz0iaHR0cDovL3d3dy53My5vcmcvMjAwMC9zdmciIHhtbG5zOnhsaW5rPSJodHRwOi8vd3d3LnczLm9yZy8xOTk5L3hsaW5rIiB2ZXJzaW9uPSIxLjEiIGlkPSJfeDMyXyIgeD0iMHB4IiB5PSIwcHgiIHZpZXdCb3g9Ii0wLjAwMDAwMTc3OTQzOTIzMDYzMTM5NjYgMTMuNjE2OTk4NjcyNDg1MzUyIDUxMS45OTg2MjY3MDg5ODQ0IDQ4NC43NjYwMjE3Mjg1MTU2IiBzdHlsZT0id2lkdGg6IDUxMnB4OyBoZWlnaHQ6IDUxMnB4OyBvcGFjaXR5OiAxOyIgeG1sOnNwYWNlPSJwcmVzZXJ2ZSIgd2lkdGg9IjUxMS45OTg2MjY3MDg5ODQ0IiBoZWlnaHQ9IjQ4NC43NjYwMjE3Mjg1MTU2Ij4mI3hhOzxzdHlsZSB0eXBlPSJ0ZXh0L2NzcyI+JiN4YTsJLnN0MHtmaWxsOiM0QjRCNEI7fSYjeGE7PC9zdHlsZT4mI3hhOzxnPiYjeGE7CTxwYXRoIGNsYXNzPSJzdDAiIGQ9Ik01MDkuMDE3LDQzLjM1OGMtMi40NTctMS43ODYtNS43OTgtMS44MzYtOC4zMDgtMC4xMzJsLTE2Ljc4OSwxMS4zOTdsMC4wMTIsMC4wMTYmIzEwOyYjOTsmIzk7Yy0wLjAwMywwLTAuMDEyLDAuMDE3LTAuMDI0LDAuMDI0bC0wLjAwOS0wLjAyNGMtMC4wMTIsMC0yLjkwMiwxLjk0NC03Ljg4MSw0LjczOWMtNC45OTYsMi44MDQtMTIuMTUsNi41MTctMjAuODUsMTAuMTk4aC0wLjAwNCYjMTA7JiM5OyYjOTtjLTE3LjY1NCw3LjUwOS00MS43MDQsMTQuNzg4LTY2LjgzMSwxNC43NzFjLTAuMDM3LDAtMC4xMzcsMC0wLjE5NSwwYy0xNi4wMjQtMC4wMTYtMzIuNDQ5LTIuODc4LTQ4LjU5OC0xMC4zMjEmIzEwOyYjOTsmIzk7Yy0xNS43MjItNy4yNDYtMzYuNTkzLTE3LjU0Mi01OS41NTYtMjYuMDY5aC0wLjAwNGMtMjIuOTg0LTguNTAyLTQ4LjE5Ny0xNS40NS03My41MDEtMTUuNDg0aC0wLjA5OSYjMTA7JiM5OyYjOTtjLTguOTgyLDAtMTcuOTg0LDAuOTkzLTI2LjgyMiwzLjEyN2MtMC44NDgtOS41MjgtNy4yODItMTguMDE0LTE3LTIwLjk1OGwwLjAxMiwwLjAwOGMtMi4zMDctMC42ODYtNC42NTItMS4wMzMtNi45NjQtMS4wMzMmIzEwOyYjOTsmIzk7Yy0xMC4zNzUsMC0xOS45MjQsNi43MjQtMjMuMDc1LDE3LjE2MUwxLjAzLDQ2Ny4zMTlDMC4zMzUsNDY5LjYyNiwwLDQ3MS45NzYsMCw0NzQuMjgyYy0wLjAwNCwxMC4zOCw2LjczNiwxOS45MDgsMTcuMTU4LDIzLjA4NCYjMTA7JiM5OyYjOTtoMC4wMDhjMi4zMDcsMC42OTQsNC42NTYsMS4wMTcsNi45NDcsMS4wMTdjMTAuMzgsMCwxOS45MjQtNi43MjQsMjMuMDg0LTE3LjE1NGw2NS4wODUtMjE2LjA3JiMxMDsmIzk7JiM5O2MxMS4zMjItNi42OSwyNC4wNDctOS41NzcsMzguMzY4LTkuNjAxbDAuMTc4LTAuMDA4YzE5Ljc2NywwLDQyLjA0OCw1Ljc3Miw2My4xNjMsMTMuNjcxaDAuMDEzJiMxMDsmIzk7JiM5O2MyMS4yMyw3Ljg4Miw0MS4yNzgsMTcuNzA4LDU3LjQ4NSwyNS4yMDFoMC4wMDRjMjAuNDY2LDkuNDQ2LDQxLjMxMiwxMy4wMTgsNjAuODMsMTMuMDE4aDAuMDM3YzAuMDE2LDAsMC4wMjksMCwwLjA0NSwwJiMxMDsmIzk7JiM5O2MzMC45NTctMC4wMjQsNTguNjY0LTguNzQyLDc4Ljc3NC0xNy4yODVoMC4wMDRjMTAuMDU3LTQuMjg0LDE4LjIzMi04LjU2OCwyMy45NjgtMTEuODFjMi44NjktMS42MjksNS4xMjctMi45OTQsNi43MDMtMy45NzgmIzEwOyYjOTsmIzk7YzAuNzg2LTAuNDg4LDEuMzk4LTAuODg1LDEuODQtMS4xODNsMC41MTItMC4zMzhsMC4xNTMtMC4wOTJsMC4wNDItMC4wMzNoMC4wMDRsMC4wNTMtMC4wMzNsMi4yLTEuNDg5JiMxMDsmIzk7JiM5O2MxLjQwMi0wLjk1OSwyLjQxNC0yLjM1NywyLjg4Ni0zLjk4N2w2Mi4xNzQtMjE1Ljk5NkM1MTIuNTU2LDQ4LjI4Nyw1MTEuNDc3LDQ1LjE0NCw1MDkuMDE3LDQzLjM1OHogTTM3NS40NDYsMTA1LjcxOSYjMTA7JiM5OyYjOTtjNC4zMDksMC4zNjMsOC41NzYsMC41NjIsMTIuNzgyLDAuNTYyYzEzLjA4OC0wLjAwOSwyNS42MzgtMS42NTQsMzcuMjU1LTQuMjAybC0xNS44NDIsNTUuMDI1JiMxMDsmIzk7JiM5O2MtMTIuMjg2LDMuMDAxLTI1LjY4NCw1LjAxMS0zOS42MjksNS4wMDRjLTMuNTIzLDAtNy4wOTItMC4xNjYtMTAuNjc0LTAuNDNMMzc1LjQ0NiwxMDUuNzE5eiBNMjY3Ljg4Niw2Ni45MTImIzEwOyYjOTsmIzk7YzEuNDg5LDAuNTI5LDIuOTg1LDEuMDUxLDQuNDU3LDEuNTk2YzE2LjgyNyw2LjI0NCwzMi43NjQsMTMuNjIyLDQ2LjU4OSwyMC4wOWwtMTYuMDkxLDU1LjkwOSYjMTA7JiM5OyYjOTtjLTE0Ljk0OS02Ljk4LTMyLjUxMS0xNS4wMTktNTEuMDg3LTIxLjU2MkwyNjcuODg2LDY2LjkxMnogTTE2NS4xNCw2NC42MjFjMTIuNDQ4LTcuMTc4LDI2LjM1NS0xMC4yMyw0MS4zMjgtMTAuMjMmIzEwOyYjOTsmIzk7YzEuNTA2LDAsMy4wMzYsMC4wOTksNC41NDksMC4xNTdsLTE2LjA5NSw1NS45MDJjLTIuMjI0LTAuMTE2LTQuNDU3LTAuMjMyLTYuNjY2LTAuMjMyYy0xMy42ODQsMC0yNi45NzgsMi4zODItMzkuMjc3LDguMDMxJiMxMDsmIzk7JiM5O0wxNjUuMTQsNjQuNjIxeiBNMTU5LjM4LDIzMy45M2MtMi45MTYtMC4xOTgtNS44MzEtMC4yOTgtOC43MzQtMC4yOThjLTEyLjgzNi0wLjAxNy0yNS41NjgsMi4wMTgtMzcuNTczLDYuNzgybDE1LjU3OC01NC4xMTUmIzEwOyYjOTsmIzk7YzEyLjI3My01Ljk3OSwyNS42NzYtOC40OTQsMzkuNjItOC40OTRjMi4zODYsMCw0Ljc4OCwwLjA5OSw3LjIsMC4yMzFMMTU5LjM4LDIzMy45M3ogTTE3OS4yODcsMTc1LjM5bDE3LjgyMi02MS45MTQmIzEwOyYjOTsmIzk7YzE2LjkxLDEuMTkxLDM0LjMzMiw1LjU3NCw1MS4wNTYsMTEuMzE0bC0xNy45MjIsNjIuMjM3QzIxMy42NTksMTgxLjI3OCwxOTYuMzEyLDE3Ni44MTMsMTc5LjI4NywxNzUuMzl6IE0yNjcuMjIsMjY4LjI0NSYjMTA7JiM5OyYjOTtjLTEzLjM5OS02LjI2OS0yOC45NzItMTMuMzkxLTQ1LjU4OC0xOS41ODVjLTEuODE2LTAuNjYyLTMuNjY0LTEuMjk4LTUuNTA4LTEuOTZsMTYuMDc4LTU1Ljg0NCYjMTA7JiM5OyYjOTtjMTguNTY0LDYuNjUsMzYuMTMsMTQuNzM4LDUxLjA0NiwyMS43MTlMMjY3LjIyLDI2OC4yNDV6IE0yODYuNzYsMjEwLjk4OGwxNy45NTEtNjIuMzYxYzMuNDM3LDEuNjA0LDYuNzY2LDMuMTU5LDkuODg4LDQuNjA2JiMxMDsmIzk7JiM5O2MxMy42MjIsNi4yOTQsMjcuNDMsOS42ODUsNDAuOTIzLDExLjA2NmwtMTcuODE1LDYxLjg5OGMtMTMuOC0xLjIxNi0yNy45MjUtNC41NTctNDEuODYxLTEwLjk3NSYjMTA7JiM5OyYjOTtDMjkyLjk3NSwyMTMuODk4LDI4OS45MTEsMjEyLjQ1OSwyODYuNzYsMjEwLjk4OHogTTM3NC4zMjksMjc5Ljc0OWMtMTIuODk4LDMuNDI0LTI3LjE1Miw1Ljc4MS00MS45MjcsNS43NzImIzEwOyYjOTsmIzk7Yy0yLjg1OCwwLTUuNzQtMC4xMzItOC42MzEtMC4zMTRsMTYuMDk5LTU1LjkwOWMzLjQxMSwwLjIzMSw2LjgwNywwLjM4OSwxMC4xNiwwLjM4OWMxNC4xNiwwLDI3Ljc0LTIuMDEsNDAuMTYyLTUuMDM3JiMxMDsmIzk7JiM5O0wzNzQuMzI5LDI3OS43NDl6IE00NDYuNDEyLDE5OC44NTRjLTkuNDc4LDUuNDg0LTI4LjM1MiwxNS4yNTEtNTEuOTY5LDIxLjY2MmwxNy41NTUtNjAuOTcyJiMxMDsmIzk7JiM5O2MyMi4yNTYtNS42MzIsNDAuNjE3LTE0LjM5LDUxLjU5Ni0yMC4zODdMNDQ2LjQxMiwxOTguODU0eiIgc3R5bGU9ImZpbGw6IHJnYig3NSwgNzUsIDc1KTsiLz4mI3hhOzwvZz4mI3hhOzwvc3ZnPg==;fontColor=#FFFFFF;" parent="1" vertex="1">
          <mxGeometry x="40" y="40" width="46.17" height="43.73" as="geometry" />
        </mxCell>
        <mxCell id="FAvYL7a3MEpKTh5j457e-15" value="" style="shape=image;verticalLabelPosition=bottom;labelBackgroundColor=#ffffff;verticalAlign=top;aspect=fixed;imageAspect=0;image=data:image/svg+xml,PHN2ZyB4bWxucz0iaHR0cDovL3d3dy53My5vcmcvMjAwMC9zdmciIHZlcnNpb249IjEuMCIgd2lkdGg9IjEyNzkuNzc2ODU1NDY4NzUiIGhlaWdodD0iMTA1Ni41Mzk3OTQ5MjE4NzUiIHZpZXdCb3g9IjAuMTI4MDUxMzEwNzc3NjY0MTggMC4zOTEwMTU2MTkwMzk1MzU1IDEyNzkuNzc2ODU1NDY4NzUgMTA1Ni41Mzk3OTQ5MjE4NzUiIHByZXNlcnZlQXNwZWN0UmF0aW89InhNaWRZTWlkIG1lZXQiPiYjeGE7PG1ldGFkYXRhPiYjeGE7Q3JlYXRlZCBieSBwb3RyYWNlIDEuMTUsIHdyaXR0ZW4gYnkgUGV0ZXIgU2VsaW5nZXIgMjAwMS0yMDE3JiN4YTs8L21ldGFkYXRhPiYjeGE7PGcgdHJhbnNmb3JtPSJ0cmFuc2xhdGUoMC4wMDAwMDAsMTA1Ny4wMDAwMDApIHNjYWxlKDAuMTAwMDAwLC0wLjEwMDAwMCkiIGZpbGw9IiMwMDAwMDAiIHN0cm9rZT0ibm9uZSI+JiN4YTs8cGF0aCBkPSJNNTYzMCAxMDU2NCBjLTEyOCAtMTYgLTI5MiAtNDkgLTMyOSAtNjUgLTI0IC0xMCAtNzAgLTQ0IC0xMDMgLTc1JiMxMDstMzQgLTMwIC04NCAtNjYgLTExMyAtNzkgLTI5IC0xMiAtNjAgLTMzIC02OSAtNDYgLTE5IC0yOCAtMjMgLTIzIDczIC03OCA3MSYjMTA7LTQwIDIyNSAtMTYwIDIxNyAtMTY4IC04IC04IC0xMDUgNDMgLTIyMCAxMTcgLTgzIDU0IC05OSA2MCAtMTEyIDQ5IC0xNCAtMTEmIzEwOy0xNSAtMjUgLTkgLTc5IDQgLTM2IDYgLTg4IDYgLTExNiAtMSAtMzUgMyAtNTUgMTQgLTY0IDIyIC0xOCAxOSAtMzYgLTE1IC03MSYjMTA7LTE3IC0xOCAtMzIgLTQ3IC0zNSAtNjggLTEzIC03OSAtMTcgLTkxIC0zNiAtMTE2IC0xMiAtMTQgLTMxIC0yNSAtNDQgLTI1JiMxMDstMTMgMCAtMzUgLTUgLTQ4IC0xMSAtMjAgLTkgLTQzIC02IC0xMjYgMjAgLTk3IDMwIC0xMTMgNDAgLTE1MyA4OSAtMTMgMTYmIzEwOy0yOSAyMiAtNjAgMjIgLTc2IDAgLTIyMSAtMTkgLTIzMSAtMjkgLTggLTggLTE4IC00IC0zMyAxMCAtMjEgMjAgLTI3IDIxIC03MCYjMTA7MTAgLTEyOCAtMzIgLTIxNCAtMTEzIC0yOTUgLTI3NCAtMjcgLTU3IC01MyAtMTIyIC01NiAtMTQ1IC01IC0zOSAtMiAtNDcgNDAmIzEwOy0xMDIgMjUgLTMyIDU1IC03NiA2NiAtOTcgMTAgLTIxIDI5IC00NCA0MCAtNTEgMjUgLTE1IDI5IC02NyA1IC03NiAtMjUgLTkmIzEwOy0zMSAtOCAtNjIgMTkgbC0yOSAyNCAtNzkgLTUxIGMtNTUgLTM2IC0xNTIgLTEyNCAtMzE3IC0yODcgLTIwNCAtMjAyIC0yNDQmIzEwOy0yNDYgLTI3OSAtMzExIC04NiAtMTU4IC0xOTMgLTM0MCAtMjY5IC00NTYgLTQzIC02NiAtODIgLTEzNCAtODUgLTE1MSAtMyYjMTA7LTE4IC0xIC01NSA2IC04MyBsMTIgLTUyIC01MCAtNTEgYy01OSAtNjIgLTcyIC04NSAtNzIgLTEyOSAwIC0zNyAtMTEgLTU1JiMxMDstODYgLTE0NSAtNTQgLTYzIC03NyAtMTIwIC0xMjAgLTI5OCAtMjQgLTk2IC0yMyAtMzExIDAgLTQyMCAzOCAtMTcxIDcxIC0yNTQmIzEwOzE0MSAtMzQ2IDExMyAtMTUxIDIxMyAtMjMwIDM0NSAtMjc0IDEyNyAtNDIgMzg3IC0yMzAgMzUyIC0yNTMgLTggLTUgLTc1IC0xOSYjMTA7LTE1MCAtMzEgLTE3MCAtMjYgLTIxOCAtMzkgLTIwNCAtNTMgMTEgLTExIDMyOCAtMjcgNTYwIC0yNyAxMzkgLTEgMTQyIC0yJiMxMDsxNDIgLTIzIDAgLTExIC0xMiAtMzcgLTI3IC01NyAtMTYgLTE5IC0zMCAtNDcgLTMzIC02MSAtNCAtMTkgLTIzIC0zNCAtODQmIzEwOy02NiAtNTAgLTI1IC04NyAtNTIgLTEwMCAtNzEgLTIwIC0zMCAtMjIgLTMwIC0xMjUgLTM3IC0yNTEgLTE1IC01MzcgLTY0JiMxMDstNzE5IC0xMjEgbC0xMTIgLTM2IC0yMjAgNzEgYy0xMjEgMzggLTIyNyA3MCAtMjM1IDcwIC0yMCAwIC0xOSAtMTMgNSAtNjEgMzUmIzEwOy02OSA1OSAtNzggNDkwIC0xOTQgMzIwIC04NyAzNjYgLTEwMSA0MTcgLTEzMCAyMyAtMTQgNDkgLTI1IDU4IC0yNSAyNiAwIDI5JiMxMDstMjkgNSAtNTUgLTEzIC0xMyAtNDUgLTMyIC03MyAtNDEgLTQ1IC0xNSAtNTEgLTIxIC03NCAtNzAgLTEzIC0yOSAtMjggLTU2JiMxMDstMzIgLTU5IC01IC0yIC00NyA4IC05MyAyNCAtNDYgMTcgLTExMyAzNiAtMTQ5IDQ1IC0zNSA4IC0xODUgNTMgLTMzNCAxMDAmIzEwOy00NTIgMTQzIC02ODggMjA1IC03NzUgMjA2IC00NyAwIC02MCAxNSAtNjAgNzAgMCA1NiAtMyA2MCAtNjUgODcgLTg1IDM4JiMxMDstMTM0IDQ3IC0xNTQgMjkgLTEwIC05IC0yNiAtMTYgLTM3IC0xNiAtMTEgMCAtMzAgLTcgLTQyIC0xNiAtMTggLTEzIC0yMiAtMjUmIzEwOy0yMiAtNzMgMCAtMzggLTggLTc1IC0yMSAtMTA2IC0xNyAtMzggLTIwIC02MiAtMTcgLTExNyAzIC02NCA3IC03MyAzNiAtOTkmIzEwOzM4IC0zNCA4MSAtNDYgMTk3IC01NSAxMDYgLTcgMjMwIDggMjg0IDM1IGwzOCAyMCA2NDQgLTE4NSBjMzU0IC0xMDIgNjU1JiMxMDstMTkxIDY2OSAtMTk3IDI4IC0xNCAzNyAtMzAgODYgLTE0OSA0MiAtMTAyIDMwIC05NiAzMTIgLTE4MyBsMTg0IC01NyAyNiAyNSYjMTA7YzUxIDQ3IDEwNSA2NyAyMTQgNzYgOTcgOSAxMDQgOCAxMjEgLTExIDkgLTExIDE3IC0yNiAxNyAtMzMgMCAtNyAtMzMgLTI3JiMxMDstNzIgLTQ1IC05OSAtNDQgLTEzMiAtNjggLTExOCAtODYgNyAtNyA5IC0xOCA1IC0yNCAtMyAtNiAtNjcgLTQwIC0xNDAgLTc1JiMxMDstMTI0IC02MCAtMTM2IC02OCAtMTU2IC0xMDcgLTI2IC01MiAtMzYgLTE1MSAtMTkgLTIwMiAxMCAtMzEgMTYgLTM2IDQyIC0zNiYjMTA7MTcgMCA1NSAtMTUgODcgLTM0IDc2IC00NiAxMzUgLTY0IDIzMSAtNzIgODcgLTcgOTIgLTExIDEwMyAtNzIgMTIgLTYzIC0yNSYjMTA7LTgwIC0zMDcgLTEzNyAtMTU1IC0zMSAtMTgwIC0zOSAtMzE1IC0xMDMgLTgwIC0zOSAtMTkzIC04NCAtMjUxIC0xMDIgLTEyNiYjMTA7LTM4IC0yODQgLTk3IC04MTYgLTMwMyAtNDI1IC0xNjUgLTU5NiAtMjI3IC02MjIgLTIyNyAtMTAgMCAtMjQgNSAtMzIgMTAgLTEyJiMxMDs4IC0xMSAxMyA4IDMzIDE5IDIwIDIyIDM0IDIyIDEwMSAwIDExNSAtMjEgMTQwIC03NyA5MiAtMjYgLTIzIC0yNyAtMjYgLTE2JiMxMDstNTcgMTcgLTQ1IDUgLTU1IC01MSAtMzkgLTQyIDEyIC00OCAxMSAtODggLTEzIC03OSAtNDYgLTEwMyAtMTAxIC0xMTAgLTI0NCYjMTA7LTIgLTQ4IDIgLTc3IDEwIC04NSAxNyAtMTcgMTUgLTMxIC04IC02MSAtMjAgLTI1IC0yMCAtMjUgMSAtMzggMjEgLTE1IDM4JiMxMDstNzEgMzkgLTEyOCAwIC0zMSAtMiAtMzMgLTMwIC0yOSAtMzcgNiAtNTMgLTExIC00OCAtNDkgMiAtMTggMTEgLTMyIDI2IC0zOCYjMTA7MTggLTggMjIgLTE1IDE3IC0zNSAtMjQgLTEwNCAtMTUgLTE0MyA0MCAtMTY2IDUwIC0yMSA2MSAtMTggMTA1IDI2IDU2IDU2IDUzJiMxMDs3NCAtMTcgMTA4IC00MiAyMCAtNTggMzMgLTU4IDQ3IDAgMTcgOCAyMCA1MCAyMyA1NyAzIDk4IC0xNCAxMDMgLTQzIDIgLTExIDkmIzEwOy0yNSAxNyAtMzAgOCAtNyAxMSAtMjcgOCAtNjIgLTUgLTQ5IC03IC01MiAtNTIgLTc2IC04NiAtNDcgLTEyOSAtODQgLTEzMyYjMTA7LTExNCBsLTQgLTI4IC00NyA0OCAtNDcgNDcgLTcxIC0xNSBjLTc5IC0xNiAtODQgLTE4IC03NCAtMzUgNyAtMTIgMzkgLTEwJiMxMDsxMDggNiAyMCA1IDI3IDIgMjcgLTggMCAtMjEgLTU0IC0xMDIgLTEzNiAtMjA1IC03NyAtOTYgLTEwMCAtMTExIC0xNzkgLTExNiYjMTA7LTM2IC0yIC00MCAwIC00MyAyNCAtMiAxOCA3IDM2IDMzIDYzIDE5IDIwIDM1IDQwIDM1IDQyIDAgMyAtMTUgNCAtMzMgMiAtMzImIzEwOy0zIC0zMiAtMyAtMzUgNDUgLTMgMzkgMSA1MyAyMyA3OSA0MiA0OSAxMTUgMTA1IDE0NiAxMTIgMzIgNiAzOSAzMCAxMiA0MCYjMTA7LTEyIDUgLTE0IDkgLTUgMTggNyA3IDEyIDE4IDEyIDI1IDAgMjUgLTI2IDEzIC03MCAtMzIgLTUzIC01NCAtOTAgLTYxIC05MCYjMTA7LTE3IDAgNDEgMjggMTE3IDUxIDEzOCAxMCA5IDE5IDI4IDE5IDQyIDAgMjMgMSAyNCAxNyAxMCAxNyAtMTUgMTE3IC02OCAxMjgmIzEwOy02OCAzIDAgNSA5IDUgMTkgMCAxOCAtMjMgNDEgLTk5IDk5IGwtMjUgMTkgMjMgNjMgYzIyIDU5IDIzIDg4IDYgMTMyIC01IDEzJiMxMDswIDIwIDE4IDI3IDE0IDUgMzcgMjYgNTMgNDYgMjMgMzAgMjkgMzQgMzYgMjEgMTMgLTIzIDQxIC0yMCA2NSA3IDQ1IDQ4IDU0JiMxMDs5NyAxOCA5NyAtMTkgMCAtMTkgNSA1IDc1IDExIDMyIDIwIDc4IDIwIDEwMiAwIDM4IDQgNDUgMjYgNTMgNTEgMjAgMTE0IDcyJiMxMDsxMzQgMTEwIDIyIDQ0IDMyIDQ5IDc3IDQyIDE4IC0yIDUzIDEgNzcgOCAzOCAxMCA0OCAxMCA2NyAtNCAxMyAtOSAzMiAtMTYgNDImIzEwOy0xNiAyNSAwIDg4IDMzIDExMSA1OSAxMSAxMiAyMyAyMSAyOCAyMSAxNyAwIDQzMyAyMjMgNDg4IDI2MSAzMSAyMiA2MyAzOSA3MiYjMTA7MzkgOSAwIDYxIDIxIDExNSA0NiAyNjYgMTI1IDU0MCAyMzUgNzYzIDMwOSA2MyAyMCAxMjEgNDMgMTI4IDUwIDIyIDIwIC0xNTYmIzEwOzE4MSAtMjg5IDI2MCAtMjIwIDEzMSAtMzk1IDE3NiAtNjgzIDE3NiAtMTc4IDAgLTI5NSAtMTggLTQwNSAtNjIgLTExMyAtNDYmIzEwOy0yNjEgLTk5IC0zMDUgLTExMCAtNTMgLTEzIC04NiAtMzIgLTEyMCAtNjggLTE3IC0xNyAtMzggLTMxIC00OSAtMzEgLTI2IDAmIzEwOy01NCAtMTYgLTExMiAtNjUgLTI3IC0yMyAtNzIgLTUyIC05OCAtNjQgLTMxIC0xNSAtNTcgLTM3IC03MyAtNjMgLTE0IC0yMSYjMTA7LTMzIC00MSAtNDIgLTQ0IC02MSAtMTkgLTg0IC0zNiAtMTAxIC03NyAtMTMgLTI5IC0zMCAtNDkgLTU3IC02NCAtNDggLTI3JiMxMDstODkgLTY5IC0xMDMgLTEwNSAtNyAtMjAgLTE4IC0yOCAtMzQgLTI4IC0zNSAwIC03NSAtMzYgLTg3IC03OCAtMTMgLTQ5IC0xOCYjMTA7LTU0IC02OCAtODIgLTU0IC0zMCAtODIgLTc0IC03NSAtMTE3IDUgLTI5IDIgLTMzIC0zMCAtNDcgLTM5IC0xNiAtNTcgLTQxJiMxMDstNTcgLTgxIDAgLTE5IC03IC0yOCAtMjcgLTM2IC02NyAtMjUgLTEzMCAtMTIwIC0xMTIgLTE2NyAxMiAtMzIgLTEwIC02NyAtNTYmIzEwOy04OSAtMzUgLTE3IC02NSAtNjQgLTY1IC0xMDEgMCAtMTIgLTExIC00MiAtMjUgLTY3IC0xNiAtMzEgLTI0IC02MiAtMjMgLTkxJiMxMDswIC00MCAtNCAtNTAgLTM5IC04MyAtMjEgLTIxIC00NSAtNTYgLTUyIC03OSAtMTMgLTM5IC0xMyAtNDIgMTMgLTcyIDE0IC0xNyYjMTA7MjYgLTM2IDI2IC00MSAwIC01IC0xOCAtMjAgLTQwIC0zNCAtNTcgLTM2IC02NCAtNTQgLTU3IC0xNjMgNSAtODQgMyAtOTggLTE5JiMxMDstMTQ1IC0xMyAtMjkgLTI2IC03MSAtMzAgLTk1IC02IC00MCAtNCAtNDYgMjYgLTc3IGwzMyAtMzQgLTI3IC0zMiBjLTI0IC0yOCYjMTA7LTI3IC0zOSAtMjQgLTkzIDMgLTYwIDQgLTYxIDQxIC03OSAyMCAtOSAzNyAtMjAgMzcgLTIzIDAgLTQgLTE0IC0yMiAtMzEgLTQxJiMxMDstMjUgLTI5IC0yOSAtNDEgLTI0IC02NyAxOCAtODUgMjcgLTEwNyA1MyAtMTIzIDE1IC05IDI5IC0xOCAzMSAtMjAgMiAtMSA0JiMxMDstNDAgNSAtODUgMSAtNzIgNSAtOTAgMzEgLTEzOCAxOSAtMzQgNDYgLTY1IDcyIC04MyAyNSAtMTYgNDUgLTM4IDQ4IC01MyAzJiMxMDstMTMgNyAtMzQgMTAgLTQ3IDYgLTMzIDcyIC0xMDUgOTggLTEwOSAxNCAtMiAyOCAtMTYgMzkgLTM4IDkgLTIwIDM3IC01NSA2MiYjMTA7LTc4IDM1IC0zMiA1MyAtNDIgODAgLTQyIDMyIDAgMzcgLTUgNjMgLTUyIDIyIC00MiAzNSAtNTQgNjIgLTYxIDIyIC01IDQzIC01JiMxMDs1OSAyIDE5IDkgMjkgNyA1MyAtMTAgMTYgLTExIDI5IC0yNCAyOSAtMjggMCAtMTUgNzYgLTYxIDEwMSAtNjEgMTQgMCAzNiAxMSYjMTA7NDkgMjUgMTMgMTQgMjcgMjUgMzIgMjUgNCAwIDIwIC0xOCAzNCAtNDAgMzQgLTUyIDY1IC02MCAxMTggLTMyIDUyIDI4IDY3IDI4JiMxMDsxMDAgLTMgMzMgLTMxIDc0IC0zMiAxMzUgLTUgMzAgMTQgNjUgMjAgMTE1IDIwIDUyIDAgODEgNSAxMDggMjAgMjAgMTAgNzIgMjgmIzEwOzExNiA0MCA0NCAxMSAxMjggNDUgMTg3IDc1IDU5IDMwIDExMyA1NSAxMTkgNTUgNiAwIDQyIDI1IDgwIDU1IDQwIDMxIDk3IDY1JiMxMDsxMzYgODAgNDEgMTYgODAgMzkgMTAxIDYxIDE5IDIwIDU2IDQ3IDgyIDYwIDMzIDE3IDU3IDQwIDc4IDcyIDIxIDM0IDQ0IDU0JiMxMDs4MSA3MiAyOCAxNCA1NSAzMiA1OSA0MCA1IDggMTYgMzIgMjUgNTMgMTcgMzggNTcgNjcgOTIgNjcgMjggMCA2MCAzNSA3MiA3OCYjMTA7NyAyNyAyMSA0NiA0NyA2MyAyOSAxOSA0MCAzNCA0OSA3MiAxNiA2MSAyNyA3NCA5MCAxMDIgNTYgMjUgNzQgNDcgNzQgOTIgMCYjMTA7MzUgMzAgODUgNjYgMTA5IDE1IDExIDQzIDM0IDYyIDUyIDI3IDI2IDMzIDM4IDI5IDYwIC03IDM0IDggNjIgMzMgNjIgMjUgMCYjMTA7MzYgMjIgNDUgODUgMTEgODUgMTQgOTQgNDYgMTEwIDM3IDIwIDU5IDY4IDU5IDEyOSAwIDU1IDE2IDkzIDQxIDk5IDEyIDMgMjkmIzEwOzI4IDQ0IDYxIDI5IDY2IDEwIDUzIDM4MCAyNTggMzM2IDE4NyAzOTcgMjE4IDQyNyAyMTggMTYgMCA0OSAtMjggMTEwIC05NCYjMTA7MTYzIC0xNzYgMjMwIC0xODQgNTAzIC02MSBsMTIwIDUzIDE1MCA3IGMxODYgNyAzNjMgMjIgNDMzIDM2IDQwIDggNjQgMjEgOTUmIzEwOzUwIDU3IDUzIDEyNyA3OSA0MDcgMTQ5IDEzMiAzMyAyNjggNzEgMzAzIDg0IDE3OSA2NyAzMzEgMTcwIDQ5MyAzMzEgMTI3IDEyNyYjMTA7MTk5IDIyNCAyNDEgMzI3IDM1IDg2IDExMCAzNTEgMTE4IDQxOCA2IDUwIDQgNTkgLTIxIDk1IC00NiA2NyAtNjQgMTI3IC02NCYjMTA7MjE0IDAgODkgMTIgMTMxIDM2IDEzMSA5IDAgNDIgLTE2IDczIC0zNSAxMDggLTY1IDE3NyAtNjUgMjc1IDEgMzQgMjMgNjIgMzQmIzEwOzg3IDM0IDQ4IDAgMTMxIDI2IDIxMCA2NSAxMjUgNjQgMTUxIDk3IDIyMyAzMDAgMTEzIDMxNiAyNTkgNTM4IDQ3MyA3MjAgMTIwJiMxMDsxMDIgMTQ0IDk4IDIyMCAtMzggNjIgLTExMCA2MiAtMTE4IDUgLTE4MCAtMjcgLTI5IC02NCAtNzQgLTgyIC0xMDIgLTE4IC0yNyYjMTA7LTYxIC04NCAtOTUgLTEyNSAtOTIgLTExMiAtMTM0IC0xNzcgLTE4MCAtMjgwIC05IC0xOSAtMjcgLTQ2IC0zOSAtNjAgLTEzJiMxMDstMTQgLTM0IC00NSAtNDYgLTcwIC0xMyAtMjUgLTMxIC01NyAtNDEgLTcxIC0xMCAtMTQgLTIxIC0zOCAtMjUgLTU0IC00IC0xNiYjMTA7LTIwIC00OSAtMzUgLTc0IC0yNiAtNDEgLTg5IC0yMjAgLTg5IC0yNTQgMCAtOCAtNyAtMjAgLTE2IC0yOCAtNzEgLTU5IC0xMTQmIzEwOy0zMzAgLTExNCAtNzE5IDAgLTMyMyAyNyAtNTA3IDgxIC01NTYgMTUgLTE0IDE5IC0zMSAxOSAtODYgMCAtODEgMTIgLTEwOSA3MCYjMTA7LTE2MSA0NSAtNDAgNDUgLTM4IDI1IC0xMjcgLTggLTM0IDM3IC0xMDIgODYgLTEzMCAzMCAtMTYgNDAgLTI5IDQ1IC01OCAxMiYjMTA7LTY4IDQ4IC0xMTcgMTEwIC0xNDggNDkgLTI1IDU4IC0zNSA2OSAtNzAgNyAtMjMgMTkgLTUxIDI3IC02MyAyMyAtMzMgNzggLTcwJiMxMDsxMjAgLTgxIDI3IC04IDQxIC0xOSA1NSAtNDcgMjYgLTUxIDEyMSAtMTA4IDE4MSAtMTA4IDQzIDAgNDggLTMgNzkgLTQ3IDI0JiMxMDstMzQgNDcgLTUyIDgwIC02NCA0MyAtMTcgNDkgLTE3IDkxIC0xIGw0NiAxNiA0NSAtMzggYzEwNCAtODcgMTUwIC05OSAyMTMmIzEwOy01NiA1MCAzNCA2NiAzMiAxMDkgLTE1IDMzIC0zNiA0MSAtNDAgODUgLTQwIDMxIDAgNjEgNyA4MiAyMCA0MyAyNiA3MCAyNSYjMTA7MTE0IC01IDY0IC00MyA5NSAtNDIgMjQxIDExIDQyIDE0IDU0IDE1IDg4IDQgNDggLTE2IDEwNyAtNSAyMDkgNDAgNTQgMjQgODMmIzEwOzMwIDEzNSAzMCA1NiAwIDg2IDggMTgxIDQ1IDYyIDI1IDExOSA0NSAxMjYgNDUgNyAtMSA3NiAzMSAxNTMgNjkgNzcgMzggMTYyJiMxMDs3NyAxODkgODcgMjcgOSA3MiAzNyAxMDEgNjQgNzAgNjMgMTQwIDExMCAxODEgMTIyIDQyIDExIDEwNCA2NCAxMDQgODggMCAxMSYjMTA7MTggMjggNDQgNDQgMjQgMTQgNTggNDIgNzUgNjIgMjIgMjUgNDYgMzkgNzQgNDYgMjQgNSA1NyAyMyA3NiA0MSAzMSAzMCAxMDEmIzEwOzE1NiAxMDEgMTg0IDAgMTIgMTEgMTcgNjYgMjggNTAgMTAgNzYgNDMgMTQ4IDE5MiAxNiAzMiAzNiA1OCA1NCA2NyA0MSAyMSA4MiYjMTA7NzMgODIgMTAzIDAgMTUgMTIgMzYgMzAgNTMgMzQgMzIgNTAgNjggNTAgMTE0IDAgMjYgOCAzOSA0MCA2NSA1MSA0MSA3OSA5NiYjMTA7OTUgMTg5IDExIDYyIDE5IDgwIDQ4IDExMSA0NyA0OSA1NyA3MSA1NyAxMzEgMCAzOCA4IDY3IDMxIDExMSAyNyA1MiAzMyA3NSYjMTA7MzkgMTY3IDUgNzEgMTMgMTE5IDI1IDE0MiAyNCA0NiAzMSAxNDYgMTUgMjIwIC0xMiA1OCAtMTIgNjAgMTUgOTIgMjQgMjkgMjcmIzEwOzM4IDIyIDgzIC0zIDI4IC0xNyA3OSAtMzEgMTEzIC0zMSA3NCAtMzIgOTIgLTUgMTI2IDE3IDIxIDE5IDM0IDEzIDczIC05IDYzJiMxMDstMjkgMTAyIC02MCAxMTMgLTM0IDEzIC0zOSAzNSAtMTUgNjYgMTIgMTUgMjEgMzcgMjEgNTAgMCAzNiAtMzYgMTI0IC02MyAxNTMmIzEwOy0xNyAxOCAtMjcgNDMgLTMxIDgwIC03IDU3IC00OSAxNDkgLTg5IDE5NyAtMTMgMTYgLTI5IDQ1IC0zNiA2NCAtNiAxOSAtMjgmIzEwOzU2IC00OSA4MiAtMTA0IDEzMiAtMTMxIDE2NCAtMTc0IDIxMSAtMjUgMjkgLTY5IDY2IC05NiA4MiAtMjggMTcgLTU4IDQzIC02NyYjMTA7NTggLTIxIDM1IC05NSA4MyAtMTUwIDk5IC0yMiA2IC02NSAyOSAtOTUgNTIgLTYyIDQ2IC0xNTEgODUgLTE5MyA4NiAtMTUgMCYjMTA7LTU4IDE4IC05NSA0MCAtNzUgNDUgLTE0NyA3MCAtMjA0IDcwIC0yMSAwIC01NSA3IC03NSAxNSAtMTAwIDM5IC0zODUgNTYmIzEwOy01MDUgMzEgLTQyIC05IC0xMDQgLTE2IC0xMzcgLTE2IC0zNyAwIC04MCAtOCAtMTExIC0yMCAtMjggLTExIC02NyAtMjAgLTg2JiMxMDstMjAgLTEyMyAwIC01NDQgLTE1NCAtNzcxIC0yODMgLTU0IC0zMCAtMTA5IC01OCAtMTIzIC02MiAtMTQgLTQgLTQ2IC0yMiAtNzEmIzEwOy00MCAtNTcgLTQxIC0xMDMgLTY1IC0xMjMgLTY1IC04IDAgLTMxIDE0IC01MSAzMSAtMTkgMTcgLTM1IDI2IC0zNSAyMCAwIC00OCYjMTA7MzU4IC02NDMgMzk1IC02NTcgNyAtMyAyNyAyIDQzIDEwIDE5IDEwIDQyIDEzIDYxIDEwIDMzIC03IDQxIDUgMTYgMjYgLTggNyYjMTA7LTEzIDE1IC0xMCAxOSA1IDkgMTYwIDEwMSAxNjkgMTAxIDQgMCA0OCAyMCA5OCA0NSA3MCAzNSAxMDIgNDUgMTQwIDQ1IDQzIDAmIzEwOzUwIC0zIDU4IC0yNiA2IC0xNCAxMCAtMzkgMTAgLTU1IDAgLTQxIDE3IC0zNiAyOSA5IDE1IDUzIDEzIDk3IC00IDExMiAtOCA3JiMxMDstMTMgMTYgLTEwIDIwIDggMTMgMjEzIDYzIDIzMSA1NiAxNSAtNiAxNiAtMTkgMTIgLTEyOSAtNiAtMTE4IDAgLTE3NCAxNiYjMTA7LTE0OSA0IDYgMTggNzUgMzAgMTUzIDEzIDc3IDI5IDE0NiAzNCAxNTEgMjQgMjQgMTg2IDM3IDE5OCAxNiA0IC03IDcgLTc1IDYmIzEwOy0xNTIgbC0yIC0xNDEgLTMyIC00NSBjLTIwIC0yNiAtMzMgLTU4IC0zNCAtNzcgLTEgLTM3IDAgLTM3IDI3IC0yMiAxNCA3IDI0JiMxMDs3IDMzIDAgNyAtNiAxNiAtOCAxOSAtNCAxMSAxMCA4IDYxIC0zIDY4IC0xNiAxMCAtMTIgMjEgMTYgMzUgMjIgMTIgMjQgMTYgMTAmIzEwOzI2IC0xNyAxMiAtMjEgNDIgLTggNjAgMTEgMTYgNzAgMzcgODIgMjkgMTQgLTkgNzAgNDQgMTQ3IDEzOCAzMyA0MCA2MyA2NyA3NCYjMTA7NjcgMjggMCAxMzUgLTQ1IDE4OSAtODAgMjYgLTE2IDU2IC0zMCA2OCAtMzAgMzIgMCA2OSAtMTkgMTUzIC03NyA3NCAtNTEgMTk5JiMxMDstMTczIDE5OSAtMTk0IDAgLTUgLTI3IC00NSAtNjEgLTg5IC0zNCAtNDMgLTU4IC04MyAtNTQgLTg5IDkgLTE2IDE5IC04IDgxJiMxMDs3MCAzMCAzOCA2MSA2OSA2OSA2OSAxOSAwIDY0IC01NiA5MSAtMTE1IDEzIC0yNyAzNyAtNjYgNTMgLTg1IDMwIC0zNSA2MSYjMTA7LTEyOCA2MSAtMTgyIDAgLTE1IDkgLTUxIDIxIC04MCAxNyAtNDQgMjAgLTY2IDE1IC0xMjMgLTggLTgzIC04IC05MyAwIC0xNjkmIzEwOzYgLTYzIC0yMSAtMjQ2IC0zNyAtMjQ2IC01IDAgLTkgNyAtOSAxNSAwIDggLTcgMTUgLTE1IDE1IC04IDAgLTg2IC0zMSAtMTc1JiMxMDstNzAgLTg4IC0zOCAtMTc3IC03MyAtMTk4IC03NiAtMjMgLTMgLTcyIDMgLTEzMCAxNiAtODggMjEgLTk0IDIzIC0xMTAgNTgmIzEwOy0yNyA1NiAtNDIgNjAgLTEwNSAyOCAtMzAgLTE1IC02MyAtMjYgLTczIC0yNCAtMTEgMiAtMjcgMjAgLTM3IDQxIC0xNCAzMCYjMTA7LTIyIDM3IC00NiAzNyAtMTcgMCAtMzMgNCAtMzYgMTAgLTMgNSAxMiAzMyAzMyA2MiA0NCA2MCA1NSA4NSA0MiA5MyAtNiA0IC03JiMxMDsyNCAtNCA0NyA2IDM1IDUgNDAgLTExIDM3IC0yOCAtNiAtNTYgLTUxIC02MSAtMTAwIC05IC04MiAtMTMgLTg5IC0zOSAtODkmIzEwOy0yNSAwIC0zNSAyMyAtMTUgMzUgNiA0IDIgMjIgLTExIDQ3IC0yMyA0NSAtMTkgNjggMTAgNjggNDAgMCA1NSA2NSAxOSA4MCYjMTA7LTIyIDggLTIxIDExIDQgMTQgMTkgMiAyMSAyOSA0IDUxIC0xNCAxOSAtMTQgMTkgLTUxIDAgLTY5IC0zOCAtMTAwIC04NSAtNTUmIzEwOy04NSAyNiAwIDM3IC0yNyAxOSAtNDUgLTEyIC0xMiAtMjMgLTEyIC03MyAxIC04NiAyMyAtMjA1IDM0IC0yMzUgMjIgLTE0IC01JiMxMDstMzkgLTIxIC01NCAtMzYgLTIzIC0yMiAtMjkgLTI0IC0zNyAtMTIgLTE1IDI0IC0xMiAzOCAxNCA1NSAzMyAyMiA2MiA4MyA0NiYjMTA7OTkgLTggOCAtMTYgNSAtMjkgLTEzIC0xNyAtMjMgLTIxIC0yMyAtNTAgLTExIC0xOCA3IC0zOSAyNiAtNDcgNDEgLTggMTYgLTE2JiMxMDsyOSAtMTggMjkgLTIgMCAtMjggLTE2IC01NiAtMzUgbC01MyAtMzYgLTIzIDIyIGMtMjYgMjUgLTI4IDIwIDM5IDExMSAyOCAzNyYjMTA7NjQgNzQgODIgODIgMjMgMTEgMzQgMjUgMzkgNDcgMyAxOCA0IDM0IDIgMzYgLTEwIDExIC03OSAtNDggLTEwNiAtOTAgLTI4JiMxMDstNDUgLTczIC03MCAtODggLTUxIC00IDUgLTUgMTA4IC0yIDIyOSA1IDIzNSAwIDM5OCAtMTMgMzc4IC00IC03IC0xMiAtMTMwJiMxMDstMTcgLTI3NSAtNSAtMTQ1IC0xMyAtMjgyIC0xNiAtMzA1IC0xMSAtNzIgLTkgLTczIC0xODIgMTc2IC00MCA1OCAtNzcgMTA4JiMxMDstODIgMTExIC01IDMgMCAxNCAxMSAyNCAxOSAxNiAyMCAyNiAxNyAxMzYgLTIgOTcgLTYgMTIzIC0yMCAxMzcgLTEwIDkgLTIxJiMxMDsxMyAtMjUgOSAtNCAtNCAtOSAtNTIgLTExIC0xMDYgLTMgLTU5IC05IC0xMDAgLTE1IC0xMDAgLTUgMCAtMzAgMTggLTU0IDQxJiMxMDstMjUgMjIgLTQ3IDM4IC01MCAzNSAtMTYgLTE1IDM2IC0xMDYgOTcgLTE3MSAzNiAtMzggMTA2IC0xMjggMTU1IC0yMDAgNTAmIzEwOy03MSAxMDkgLTE0OSAxMzMgLTE3NCAzNiAtMzggNDIgLTUwIDM3IC03MyAtNSAtMjEgLTMgLTI4IDggLTI4IDIzIDAgMTYxIC02NyYjMTA7MTc5IC04NyA1OSAtNjcgODMgLTE5MiA1NCAtMjc5IC0xNyAtNTEgLTU0IC0xMTkgLTYxIC0xMTIgLTIgMiAzIDI0IDExIDQ4IDkmIzEwOzI1IDE2IDgxIDE3IDEyNiAxIDY5IC0zIDkwIC0yNCAxMzAgLTI4IDU2IC04OCAxMDEgLTE3NyAxMzQgLTYxIDIzIC05MiA0NSYjMTA7LTkyIDY3IDAgNyAtNiAxMyAtMTQgMTMgLTE1IDAgLTQyIC01OCAtNzYgLTE2NSAtMTIgLTM4IC0zMCAtNzcgLTM5IC04NiAtOSYjMTA7LTkgLTQzIC0yMyAtNzYgLTMyIC0xMjYgLTMzIC0xMzggLTQ2IC04NSAtODUgMTcgLTEzIDMwIC0yNyAzMCAtMzMgMCAtMTMmIzEwOy0xMTkgLTY5IC0xNDggLTY5IC0xNyAwIC0yNCA3IC0yOCAyOSAtNCAxNyAtMjQgNDYgLTQ1IDY2IC00MyA0MCAtNDkgNjcgLTI0JiMxMDsxMTUgbDE2IDMwIC01MSAwIGMtMjcgMCAtNTAgNCAtNTAgOSAwIDE2IDcwIDcxIDk4IDc2IDEwOCAyMSAyNzIgOTggMjkzIDEzOCYjMTA7NyAxMiA1IDI0IC02IDM5IC04IDEzIC0xNSAzMSAtMTUgNDEgMCAyNCAtMjQgMTcgLTI5IC05IC01IC0yNiAtMTkgLTM0IC02MiYjMTA7LTM0IC05MiAwIC0yNTcgLTcyIC0zMzMgLTE0NiAtNTMgLTUwIC02NiAtNTQgLTY2IC0yMCAwIDMyIC0xMiAzOSAtMzYgMjEgLTI2JiMxMDstMjAgLTQyIC0xOCAtNDkgNSAtMyAxMSAtMTQgMjAgLTI0IDIwIC0xOCAwIC0xMTIgNTQgLTE2MSA5MiAtMzYgMjggLTM3IDQ4JiMxMDstNSA3OCAyMCAxOSAyNyAyMSA0MCAxMCAzMCAtMjUgMjUgLTIgLTI0IDEwMSAtMjggNTcgLTEwNCAyMzcgLTE2OSAzOTkgLTE2MCYjMTA7Mzk0IC0yMjMgNTM2IC0yODYgNjUwIC0yOSA1MiAtNTYgMTAzIC01OSAxMTMgLTggMjMgMzMgNjMgNzMgNzIgNDMgOSA1MCAyNCYjMTA7NjEgMTI2IDE3IDE2MyA3NSAyNDEgMTY1IDIyNCAxOSAtMyAzNCAtMyAzNCAxIDAgMyAtMTMgMjIgLTMwIDQwIC00NiA1MyAtNzImIzEwOzExMCAtNjggMTUyIDMgMzMgOCA0MCA0OCA1OSA1NSAyNyAxMTUgMzkgMjY4IDU0IDY0IDUgMTQyIDE3IDE3MiAyNSAzMCA5IDE5NSYjMTA7ODkgMzY1IDE3OSA0MjQgMjIzIDcwMCAzNjAgNzY1IDM3OSA3OSAyMyAyNDAgMjAgNDY4IC0xMCAxMzEgLTE3IDI1MiAtMjYgMzYyJiMxMDstMjcgMTY0IC0yIDE2NSAtMiAyMTMgMjYgMTAxIDYwIDEzOSAxNjQgODAgMjE5IC00MyA0MCAtMTEzIDcxIC00MzMgMTkzIC0xNjImIzEwOzYyIC0zODQgMTQ3IC00OTIgMTg5IC0yNjMgMTAyIC0yNjkgMTAyIC00NjggMzggLTE4MyAtNTkgLTMwMSAtODUgLTUyMCAtMTEzJiMxMDstMTc2IC0yMiAtMzc0IC02NyAtNTcxIC0xMzAgLTcwIC0yMiAtMTQwIC0zOSAtMTU2IC0zNyBsLTI4IDMgLTcgMTA0IGMtOSAxMjImIzEwOy0zOCAyNTIgLTczIDMyNCAtMTQgMjkgLTU0IDkyIC05MCAxNDIgLTUxIDcyIC03OSAxMDAgLTEzNiAxMzcgLTc0IDQ5IC0yMTImIzEwOzExMiAtMjMxIDEwNiAtNiAtMiAyNyAtMzQgNzMgLTcxIDQ2IC0zNiAxMjAgLTEwMSAxNjQgLTE0MiA3MiAtNjkgNzYgLTc4IDI2JiMxMDstNTcgLTExIDQgLTEzIDEgLTYgLTE0IDIyIC01MyAzNiAtMTI3IDI2IC0xMzcgLTggLTggLTExIC0yIC0xMSAyMSAwIDQyIC0yMSYjMTA7NTAgLTU2IDIzIC0zOSAtMzEgLTQ4IC0yNiAtMjQgMTQgMjggNDYgMTMgNDQgLTUwIC02IC00MSAtMzMgLTU0IC0zOCAtNjIgLTI4JiMxMDstNDYgNjkgLTUyIDEyNCAtMTQgMTM5IDEzIDUgMjcgMTggMzEgMjkgOCAyNiAtMTIgMTAxIC0yOCAxMDIgLTE5IDIgLTIxIDImIzEwOy00NCAtNSAtMTggLTYgLTIyIC0yIC0yOCAyMyAtMTUgNzEgLTEyNyAyMDMgLTE1NyAxODUgLTE1IC05IC04IC0yMyAzNiAtNzMmIzEwOzM2IC00MSA1MCAtNjggODEgLTE2NyAyMCAtNjYgNDYgLTEzNyA1NyAtMTU4IDExIC0yMiAyOSAtNzAgMzkgLTEwNyAxMCAtMzcmIzEwOzI5IC05MiA0MiAtMTIxIDIzIC01MiA3MSAtMTE4IDg2IC0xMTggNCAwIDIyIDIyIDM5IDQ5IDQyIDY0IDc3IDg3IDEwNiA3MSAxNiYjMTA7LTggMjkgLTggNTAgLTEgMzUgMTQgNTcgMiA4NSAtNDMgMzAgLTQ3IDI3IC02MSAtMjQgLTExNSAtMzUgLTM4IC00NSAtNTUgLTQ1JiMxMDstODMgMCAtNDYgLTE1IC01OCAtNzQgLTU4IGwtNTEgMSAtNjUgOTcgYy00MSA2MiAtNjYgOTAgLTY4IDgwIC01IC0yNyAzNyYjMTA7LTE2OCA2NCAtMjE4IDMwIC01MyAyNiAtOTQgLTEyIC0xMzkgLTM3IC00NCAtODEgLTQ5IC0xMzMgLTE3IC0yMiAxNSAtNjYgMzcmIzEwOy05NiA1MCAtMzAgMTQgLTc2IDM5IC0xMDIgNTcgLTY3IDQ3IC0yMDMgMTc5IC0yMDMgMTk4IDAgOSAxNiAzOCAzNSA2NiA2OSA5NiYjMTA7ODEgMjAxIDQyIDM1MiAtMjEgNzkgLTIyIDkyIC05IDExMSAxNSAyMyA5IDQyIC0xNCA0MiAtOCAwIC0xMiA1IC05IDEwIDMgNiYjMTA7MTkgMTAgMzYgMTAgMTYgMCAyOSA0IDI5IDkgMCAxNiAtNDIgNDEgLTY4IDQxIC00OCAwIC05MCAyOSAtMTUxIDEwMyAtMzMgNDImIzEwOy03MCA3OSAtODIgODIgLTEyIDQgLTU4IC03IC0xMTcgLTI4IC0xNDYgLTUzIC0xMzggLTUyIC0xNTQgLTIwIC0xMyAyNiAtMTImIzEwOzMxIDE0IDcxIDMzIDQ4IDMyIDQ4IC01NSA1NSAtNDUgMyAtODMgMTYgLTE3NSA2MiAtMTExIDU0IC0xMjMgNjQgLTIzNSAxNzYmIzEwOy04NiA4OCAtMTIzIDExOSAtMTQyIDExOSAtMTMgMCAtMzYgNSAtNTAgMTIgLTIyIDEwIC0yNyA5IC00MCAtOCAtMTggLTIzIC0yMCYjMTA7LTIgLTMgMjYgMTAgMTYgOSAyMyAtMTIgNDUgLTM1IDM3IC0xNzMgMTAwIC0yNTAgMTE1IC04MiAxNSAtMTA1IDMwIC0xMzAgODMmIzEwOy0zMCA2NCAtNzggMTE3IC0xMjQgMTM3IC0yMyA5IC01NiAzMCAtNzQgNDUgLTQxIDM0IC0zOSA0NCAyOCAxNjEgNjQgMTExIDEwOCYjMTA7MTY5IDE3MCAyMjIgMjcgMjQgNjEgNjMgNzYgODcgMzAgNTIgNDIgNTQgMTM4IDI5IDczIC0yMCAyNTQgLTIyIDM0MCAtNCA2NyYjMTA7MTQgOTYgMzggOTYgODAgMCAyNSAtOSAzNiAtNDcgNjMgLTk5IDY4IC0yODEgMjA1IC0zMzAgMjUwIC02NiA1OCAtNzYgNjMmIzEwOy0xODIgOTQgLTg1IDI1IC0xMTEgMzcgLTExMSA1NCAwIDE1IDY5IDEwIDEwMCAtNiA0MiAtMjIgNDAgMSAtMiA0MiAtNDEgMzgmIzEwOy04MCA1OCAtMTY2IDg1IC05NyAzMCAtMTM3IDUzIC0xNjAgOTMgLTE1IDI0IC0yOSAzNSAtNDQgMzUgLTEzIDAgLTQ0IDE1IC03MSYjMTA7MzQgLTEwMyA3NCAtMjI1IDEwNiAtNDE3IDExMSAtNjkgMiAtMTQxIDEgLTE2MCAtMXogbS0zODYgLTI1NSBjMTQgLTE3IDI2JiMxMDstMzggMjYgLTQ3IC0xIC0xMyAtNiAtMTEgLTIzIDEwIC0xMiAxNSAtMzUgMzIgLTUwIDM3IC0xNiA2IC0yNSAxNSAtMjIgMjEgMTImIzEwOzE5IDQzIDEwIDY5IC0yMXogbTEwMCAtMTkgYzI5IC0xMSAzMiAtMzIgMTEgLTcwIGwtMTMgLTI1IC0xMCAyNSBjLTEzIDM2IC0yMyYjMTA7ODAgLTE4IDgwIDMgMCAxNiAtNCAzMCAtMTB6IG00MDYgLTEwMCBjMCAtNSAtNCAtMTAgLTEwIC0xMCAtNSAwIC0xMCA1IC0xMCYjMTA7MTAgMCA2IDUgMTAgMTAgMTAgNiAwIDEwIC00IDEwIC0xMHogbS02OTYgLTU4NyBjOSAtMjUgMTQgLTQ4IDEyIC01MSAtNyAtNyYjMTA7LTQ2IDYxIC00NiA4MSAwIDMzIDE4IDE3IDM0IC0zMHogbTExMzIgLTQyNyBjMTkgLTE5IDM0IC00MSAzNCAtNTAgMCAtOSAtMTUmIzEwOy0zMyAtMzMgLTUzIGwtMzQgLTM2IC0xMSA0NCBjLTIzIDk4IC0yNSAxMjkgLTcgMTI5IDkgMCAzMiAtMTUgNTEgLTM0eiBtMTU4JiMxMDstNzIgYzMzIC0xMyAxNCAtMjQgLTQxIC0yNCAtNTcgMCAtNjQgMTQgLTEzIDIzIDE0IDIgMjggNSAzMiA2IDMgMCAxMyAtMiAyMiYjMTA7LTV6IG05NiAtMTA2IGMwIC00IC03IC04IC0xNSAtOCAtMTAgMCAtMTUgMTAgLTE1IDI4IDEgMjYgMSAyNiAxNSA4IDggLTExIDE1JiMxMDstMjMgMTUgLTI4eiBtLTExMyAtNDg4IGMyOCAtMzQgMTE5IC02NiAxNTkgLTU2IDE3IDUgMjkgMCA0MSAtMTQgMTUgLTE3IDMwJiMxMDstMjAgOTQgLTIwIDk0IDAgMTIzIC0xOCAyMjYgLTEzNiA2NyAtNzYgMTE5IC0xMjQgMjA2IC0xODcgbDM3IC0yOCAwIC0xMTcgMCYjMTA7LTExNyAxNTYgLTE1NiBjMTM4IC0xMzkgMTU0IC0xNTggMTM4IC0xNjcgLTExIC01IC05MCAtMzUgLTE3NyAtNjYgbC0xNTcgLTU3JiMxMDstNTcgMjcgYy0xMDUgNDkgLTE1MiA0MyAtMjIyIC0zMCAtMTkgLTIwIC0zOSAtMzYgLTQzIC0zNiAtMTMgMCAtOSAyOSA4IDU1JiMxMDsyNCAzNyAxMCA0OCAtNTAgNDAgbC01MSAtNiAyOSAzMCBjMjggMjkgMjggMjkgNyA0MyAtMjUgMTUgLTI3IDM1IC02IDU4IDE3JiMxMDsxOSAxMCA1MCAtMTEgNTAgLTggMCAtMTQgLTQgLTE0IC0xMCAwIC01IC0xMSAtMTcgLTI1IC0yNiAtMjMgLTE1IC0yNyAtMTUmIzEwOy00MyAtMiAtOSA5IC0yOSAxOCAtNDQgMjIgLTI4IDYgLTM2IDIwIC0xOSAzMCAxNiAxMCAtMTkgNjYgLTQwIDY2IC0xMyAwIC0xOSYjMTA7NiAtMTcgMTggMiAxMiAtNSAxOCAtMjQgMjAgLTIyIDMgLTI4IDkgLTI4IDI3IDAgMTcgLTYgMjUgLTIyIDI3IC0xOSAyIC0yNCYjMTA7MTAgLTI2IDQxIC0yIDI2IDIgNDUgMTMgNTcgMTUgMTcgOSAzMiAtOTkgMjQzIC02NSAxMjcgLTExMyAyMzIgLTExMCAyNDAgMyA5JiMxMDsxMiAxOCAyMCAyMSAxOCA3IDQ0IDY2IDQ0IDEwMCAwIDUyIDY4IDYyIDEwNyAxNnogbTkwOCAtMTU3IGMxNjcgLTg0IDE4NSAtOTUmIzEwOzE4NSAtMTAxIDAgLTQgLTIwIC0xNSAtNDUgLTI0IGwtNDUgLTE3IDAgMjkgYzAgMzcgLTIzIDQwIC03MyAxMCBsLTM1IC0yMSYjMTA7LTQ4IDM5IGMtNjMgNTAgLTE1NiAxNTEgLTE0OSAxNjMgNyAxMCAxMTUgLTI5IDIxMCAtNzh6IG01MjUgLTM0NyBjMCAtNSAtMTYmIzEwOzUgLTM1IDI0IC0xOSAxOSAtMzUgMzggLTM1IDQ0IDAgNSAxNiAtNSAzNSAtMjQgMTkgLTE5IDM1IC0zOCAzNSAtNDR6IG0tMTQyMCYjMTA7LTEwNSBjMCAtMTEgLTMxIC0yNCAtMzkgLTE2IC0zIDMgMSAxMCA5IDE1IDE5IDEyIDMwIDEyIDMwIDF6IG0xMjIyIC0zOCBjMjAmIzEwOy0yMSA4MCAtMTAxIDEzNCAtMTc4IDUzIC03NyAxMzkgLTE5OSAxOTAgLTI3MSA1MiAtNzIgOTQgLTEzNCA5NCAtMTM4IDAgLTE3JiMxMDstMjYgMSAtMTA3IDc4IC04OSA4MiAtMTM5IDExMSAtMjI5IDEzMCAtMjggNiAtMzYgMTcgLTY4IDg3IC0yMCA0NSAtMzYgOTAmIzEwOy0zNiAxMDEgMCAxMiAtMTggNjEgLTQxIDExMCAtMzMgNzIgLTM4IDkyIC0yOSAxMDMgMjEgMjUgNTQgMTcgOTIgLTIyeiBtMzY2JiMxMDstODggYzQgLTI4IC0zNyAtNjUgLTgyIC03MiAtMzMgLTUgLTM2IC00IC0zNiAxOCAwIDM2IDQ5IDgxIDg1IDc3IDIxIC0yIDMxJiMxMDstOSAzMyAtMjN6IG0tMjQyMyAtMTY5IGM4NyAtNDAgMTU0IC04OSAyNzYgLTIwMSA2MyAtNTggMTUwIC0xMzAgMTk0IC0xNjAgNDQmIzEwOy0zMCAxMjggLTk3IDE4NyAtMTQ5IDkwIC03OSAxMzggLTExNyAyMTMgLTE2OCAxNCAtMTAgLTgyIC0xMDUgLTE5NSAtMTkyJiMxMDstMjAzIC0xNTUgLTM4NCAtMjY1IC02NTMgLTM5NiAtMTc4IC04NyAtNDk2IC0yMjIgLTUwNyAtMjE1IC0zIDIgLTMgNDEgMSA4NyYjMTA7MTAgMTExIC00IDI2MCAtMzAgMzI2IC00OCAxMjAgLTExMyAxOTUgLTI0MiAyNzkgLTczIDQ3IC0yNjUgMTQzIC0yODYgMTQzJiMxMDstMjAgMCAtMTUgMjggMTMgODAgMjEgMzggNDUgNjEgMTEyIDEwNSA0NyAzMiAxMjYgOTcgMTc2IDE0NSA1MCA0OCA5OCA5MSAxMDgmIzEwOzk2IDkgNSA2MyA1MiAxMjAgMTA1IGwxMDUgOTYgNjkgNiBjMzggNCAxMDMgMTYgMTQ0IDI2IDg4IDIzIDEyMiAyMSAxOTUgLTEzeiYjMTA7bTIyNzIgLTMxOSBjMTcgLTE2IDE2IC0xOCAtNSAtMzIgLTEyIC05IC03NSAtNjAgLTE0MCAtMTE0IC0xMzQgLTExMCAtMTQ1JiMxMDstMTE1IC00MTIgLTE5NyAtMjE0IC02NSAtMjY2IC04OSAtMjYyIC0xMjEgMiAtMTcgLTggLTI5IC00NSAtNTIgLTU3IC0zNiAtOTMmIzEwOy00MCAtOTMgLTEyIDAgMzEgLTE2IDM0IC02NSAxMiAtMjUgLTExIC00NSAtMTggLTQ1IC0xNSAwIDEwIDE1OSAxMDcgMjY4IDE2MyYjMTA7MTE5IDYwIDI5MiAxMzQgMzg5IDE2NiAyOSA5IDU2IDIxIDU5IDI3IDEzIDIxIC04OCAtMiAtMjUzIC01NyAtOTAgLTMwIC0xNjcmIzEwOy01NSAtMTcwIC01NSAtMyAwIDAgNyA3IDE1IDE5IDIzIDExMCA3MiAxODYgMTAxIDE0OSA1NiAzMTggMTkxIDIxMiAxNzAgLTE3JiMxMDstMyAtMjkgLTMgLTI1IDAgMTYgMTYgODUgMjMgMjI0IDIxIDEzMCAtMiAxNTUgLTUgMTcwIC0yMHogbTQwMyAtODcgYzAgLTUgLTcmIzEwOy0xMCAtMTUgLTEwIC04IDAgLTE1IDUgLTE1IDEwIDAgNiA3IDEwIDE1IDEwIDggMCAxNSAtNCAxNSAtMTB6IG0tMzUgLTE4OSYjMTA7YzE3IC0xMCA1MCAtNTIgNzYgLTk3IDU0IC05MiAxMzkgLTI1OSAxMzkgLTI3NCAwIC0xNCAtMzYgLTEzIC0xMjYgNiAtODkgMTgmIzEwOy0xMDQgMjcgLTEwNCA2MCAwIDMxIC01MCAxNjUgLTg4IDIzOSAtMzAgNTUgLTMxIDYxIC0xNSA3MyAyNSAxOCA4MyAxNSAxMTgmIzEwOy03eiBtLTQ2MjUgLTQ2IGMwIC05IC05IC0xNSAtMjUgLTE1IC0yNCAwIC0zMiAxMCAtMTggMjMgMTIgMTMgNDMgNyA0MyAtOHomIzEwO20tMTQwIC0zNSBjMCAtMTUgLTcgLTIwIC0yNSAtMjAgLTI0IDAgLTM0IDE4IC0xOCAzMyAxNSAxNSA0MyA3IDQzIC0xM3omIzEwO200MDI1IDEwIGMtMyAtNSAtMTMgLTEwIC0yMSAtMTAgLTggMCAtMTIgNSAtOSAxMCAzIDYgMTMgMTAgMjEgMTAgOCAwIDEyIC00JiMxMDs5IC0xMHogbS0yOTQzIC0yNSBjMTE3IC0yNCAxNDAgLTU0IDQxIC01NSAtNDkgMCAtNjkgLTIxIC0xMjIgLTEyNyAtMzggLTc2JiMxMDstMzkgLTk4IC02IC0xMTkgMzkgLTI1IDMwIC0zNCAtMzQgLTM0IC03NiAwIC0xMTEgMTMgLTExMSA0MSAwIDM0IDQwIDE3OSA2MCYjMTA7MjE4IDI0IDQ3IDY3IDg2IDEwMCA5MCAzIDAgMzUgLTYgNzIgLTE0eiBtMjc4NCAtMjEgYy0yNCAtMTQgLTEzMiAtNTQgLTE0MyYjMTA7LTU0IC0xMSAwIDAgMTkgMTUgMjMgOSAzIDQyIDE0IDcyIDI2IDY1IDI0IDk3IDI3IDU2IDV6IG0xODkgLTQgYy0xMCAtMTEgLTI1JiMxMDstMjAgLTMzIC0yMCAtMTIgMCAtMTIgNCAzIDIwIDEwIDExIDI1IDIwIDMzIDIwIDEyIDAgMTIgLTQgLTMgLTIweiBtLTQyMTQmIzEwOy0zMSBsMTkgMjMgMCAtMjggYzAgLTQwIC0xMCAtNzQgLTIyIC03NCAtMTAgMCAtNDggNzggLTQ3IDEwMCAwIDggNyAyIDE2IC0xNCYjMTA7bDE2IC0zMCAxOCAyM3ogbTM4ODkgLTEyOSBjMTMgLTkgMTMgLTExIDAgLTIwIC0zNiAtMjMgLTEzMCAtMjQgLTEzMCAtMSAwIDIzJiMxMDsxMDIgMzkgMTMwIDIxeiBtLTk5OCAtMjIwIGMtOTEgLTgyIC00MDYgLTI0NiAtNjI3IC0zMjggLTIwNiAtNzYgLTIxNSAtNzAmIzEwOy0xNSAxMSAyMzUgOTUgMzgzIDE3NSA1NjkgMzA5IDY5IDUwIDk3IDY2IDEwNSA1NyA4IC04IC0xIC0yMSAtMzIgLTQ5eiBtMjI3MiYjMTA7MSBjMjQgLTEwIDUyIC0zMSA2MyAtNDcgNDkgLTcwIDIyNyAtMzkyIDI0NCAtNDQzIDExIC0zMCAzMSAtNjcgNDUgLTgyIGwyNiYjMTA7LTI3IC0zNCAtMjUgYy0xOCAtMTQgLTU2IC0zOSAtODUgLTU1IC01MyAtMzIgLTYyIC0zMCAtNzYgMTEgLTQgMTAgLTYyIDExNiYjMTA7LTEzMCAyMzUgLTE3MCAyOTkgLTIxOSAzOTAgLTIxNSA0MDIgMiA1IDI3IC03IDU1IC0yNyAyOSAtMjAgNTUgLTM0IDU4IC0zMSAzJiMxMDszIC0xNSAzMCAtNDAgNjEgLTI1IDMxIC00NSA1OCAtNDUgNjAgMCA5IDkyIC0xMyAxMzQgLTMyeiBtLTEzNTQgLTM5IGMwIC0xMSYjMTA7LTI3IC05MyAtNTkgLTE4MyAtMzIgLTkwIC04MiAtMjQzIC0xMTAgLTMzOSAtNjcgLTIyOSAtODEgLTI1NSAtMTU0IC0yOTggLTYwJiMxMDstMzUgLTExMCAtODIgLTE1MCAtMTQyIC0yMiAtMzQgLTI1IC0zNSAtOTEgLTM4IC03NyAtMyAtMTA0IDEwIC03MiAzNCAxMSA4JiMxMDszNCAxNCA1MCAxNCA2MyAwIDU3IDE2IC0xNSAzOSBsLTcxIDIzIDYgNDAgYzEyIDcyIDMyIDEwOCA2NiAxMTQgMjIgNSAyOSAxMSYjMTA7MjYgMjMgLTMgOSAtMTQgNjEgLTI1IDExNiAtMTIgNTUgLTMxIDEzNiAtNDMgMTc5IGwtMjIgNzkgMzEgMjYgYzQzIDM2IDE1NSYjMTA7MTAyIDMwMyAxODAgMTIzIDY0IDMwOCAxNTEgMzIzIDE1MSA0IDAgNyAtOCA3IC0xOHogbS0xODAgLTE2IGMwIC0zIC00IC04JiMxMDstMTAgLTExIC01IC0zIC0xMCAtMSAtMTAgNCAwIDYgNSAxMSAxMCAxMSA2IDAgMTAgLTIgMTAgLTR6IG0tMzExNCAtMTAxIGMxMDMmIzEwOy0zMCAxNzkgLTYyIDE5NSAtODEgOSAtMTAgNSAtMjQgLTE1IC01OCAtMTQgLTI1IC0yNiAtNTEgLTI2IC01OCAwIC0yNyAtMjEmIzEwOy04OCAtMzAgLTg4IC02IDAgLTE2IDE2IC0yNSAzNiAtMTggNDQgLTMzIDQwIC02MyAtMTQgLTEzIC0yMyAtMjcgLTQyIC0zMiYjMTA7LTQyIC05IDAgLTExMSAyMDcgLTEzMCAyNjQgLTE0IDQ0IC04IDY2IDE5IDY2IDEwIDAgNTggLTExIDEwNyAtMjV6IG0yMTc0JiMxMDstODQgYzAgLTEyIC0yMCAtMjUgLTI3IC0xOCAtNyA3IDYgMjcgMTggMjcgNSAwIDkgLTQgOSAtOXogbS0xODc1IC0yNSBjMTkmIzEwOy0xNCAxOSAtMTUgLTcgLTI2IC0xNyAtOCAtMzMgLTMwIC00NyAtNjEgLTIxIC01MCAtMzkgLTY2IC02NyAtNTUgLTEzIDUgLTEyJiMxMDsxMSA4IDQ4IDEzIDIzIDM5IDUxIDU4IDYyIGwzNSAyMSAtMjcgMyBjLTE2IDIgLTI4IDggLTI4IDEzIDAgMTQgNTQgMTEgNzUgLTV6JiMxMDttMjA5OCAtNTMgYzMgLTUgLTEyIC0zNyAtMzQgLTcyIC0yMSAtMzUgLTQ2IC04NCAtNTUgLTExMCAtOSAtMjUgLTIxIC01NyAtMjcmIzEwOy03MSAtNiAtMTQgLTExIC0zNiAtMTIgLTQ5IC0xIC0yNiAtNDAgLTY0IC0xMTQgLTExMiAtNTQgLTM1IC01NyAtMzUgLTY0IC04JiMxMDstMyAxMiAtMTAgMjAgLTE2IDE4IC0xMCAtNCAtMTA1IC04MyAtMzQwIC0yODQgLTExMCAtOTUgLTEzNyAtMTMyIC04NCAtMTE5JiMxMDsxNSA0IDczIDI0IDEyOCA0NSA1OCAyMyAxMDMgMzUgMTA4IDMwIDEzIC0xMyAtMSAtMzEgLTI0IC0zMSAtMTEgMCAtNzUgLTIxJiMxMDstMTQyIC00NiAtNjcgLTI2IC0xNDEgLTUxIC0xNjQgLTU4IC0zNCAtOSAtNjAgLTMxIC0xNTAgLTEzMSAtMTgxIC0xOTggLTQwNCYjMTA7LTQyMSAtNDA5IC00MDggLTggMTkgOSA0MyAxMTcgMTY0IDEzNSAxNTEgMTUxIDE3NCAxODkgMjcxIDY5IDE3MyAxMDcgMjM3JiMxMDsxOTAgMzE4IDEyOCAxMjUgNTAxIDQzMCA3MDIgNTczIDkzIDY2IDE4NyAxMDMgMjAxIDgweiBtMTQ1IC00NSBjLTYgLTE3IC0zNiYjMTA7LTM0IC00NSAtMjQgLTQgNCAxIDE0IDExIDIyIDI0IDE3IDM5IDE4IDM0IDJ6IG0tMTA5OCAtODMgYzAgLTcgLTE1MyAtOTUmIzEwOy0xNjQgLTk1IC0xOSAwIDIwIDMwIDg0IDY1IDYzIDM0IDgwIDQwIDgwIDMweiBtLTExMzEgLTY2IGMzNiAtNiA3MSAtMTYgNzYmIzEwOy0yMSAxNSAtMTUgLTE0OSAtMSAtMTg4IDE2IGwtMzIgMTQgMzkgMSBjMjIgMSA2OSAtNCAxMDUgLTEweiBtMjgxIC0xNDIgYzAmIzEwOy04IC05IC0yMiAtMjAgLTMyIC0yMiAtMjAgLTI3IC03IC0xMCAyNiAxMiAyMiAzMCAyNSAzMCA2eiBtLTQ0OSAtMzggYzg2IC0yOSYjMTA7MTIyIC04NSA3OSAtMTI0IC0xNyAtMTUgLTE2MyAtNjMgLTIxMCAtNjggLTI0IC0zIC0xNyA1OSAxNiAxMzUgMzIgNzQgNDQgODAmIzEwOzExNSA1N3ogbTIyNDQgLTM4IGMxMCAtMzEgLTYgLTUyIC01OSAtNzcgLTM3IC0xNyAtNTMgLTIwIC02MyAtMTIgLTMwIDI0IC00JiMxMDs2OCA1NSA5NSA0MCAxNyA2MCAxNSA2NyAtNnogbS0xNjU3IC01NiBjNTcgLTYxIDM2IC03NCAtNDEgLTI1IC0zMiAyMCAtNDcgMzYmIzEwOy00NyA1MSAwIDE4IDQgMjAgMjggMTUgMTUgLTQgNDIgLTIyIDYwIC00MXogbTE1MDYgLTE3MCBjLTQgLTggLTEwIC0xMiAtMTUmIzEwOy05IC0xMSA2IC0yIDI0IDExIDI0IDUgMCA3IC03IDQgLTE1eiBtLTE5NTcgLTExNCBjMzQgLTY3IDYwIC05MCAxNDggLTEzMSA5NCYjMTA7LTQ0IDE2OSAtMTAwIDIwOSAtMTU5IDQ0IC02MyAyOSAtNjkgLTk2IC0zOCAtNTcgMTQgLTEyNSAyOCAtMTUzIDMyIC0yNyAzJiMxMDstNjYgMTEgLTg2IDE3IC0zMSA5IC00MiA3IC04OSAtMTcgLTQzIC0yMiAtNTggLTI1IC03MiAtMTYgLTIyIDE0IC04MyAxNCYjMTA7LTEwOSAxIC0xNiAtOSAtMjEgLTcgLTI5IDE1IC02IDE1IC0xMCA1MyAtMTAgODUgMCA1NCA0IDY0IDUzIDEzNyA2NCA5NiAxMDQmIzEwOzEyNSAxNjcgMTIxIDQyIC0zIDQ2IC02IDY3IC00N3ogbTY5ODcgLTc3IGM5IC0zIDE2IC0xMCAxNiAtMTYgMCAtMTAgLTEyNiYjMTA7LTE3NCAtMTQxIC0xODQgLTcgLTQgLTkgMjEgLTggNjggMSA0MCAtMSA4MiAtNSA5NCAtNiAxNiAtMiAyMyAxNiAzMSAyNSAxMyYjMTA7OTcgMTcgMTIyIDd6IG04NiAtMTMgYzAgLTE0IC0xOCAtMjMgLTMwIC0xNiAtNiA0IC04IDExIC01IDE2IDggMTIgMzUgMTIgMzUmIzEwOzB6IG0tNTkwNSAtMjI2IGMtNjUgLTg1IC05NyAtMTE2IC03NSAtNzUgMzUgNjggMTIzIDE3NyAxMjggMTYwIDIgLTYgLTIyIC00NCYjMTA7LTUzIC04NXogbTk0NyA1MCBjLTUgLTQzIC0yOCAtNzQgLTY5IC05MSAtNjEgLTI2IC03OSAtMSAtNDggNzEgMTYgMzkgNDQgNTUmIzEwOzkwIDUyIDI3IC0yIDMwIC01IDI3IC0zMnogbS0xNzcgLTEyOSBjOCAtMTMgMTMgLTMxIDkgLTQwIC03IC0xNyAtMjQgLTIyIC0yNCYjMTA7LTYgMCA2IC0xNyAxMCAtMzggMTAgLTQxIDAgLTYyIDE0IC02MiA0MiAwIDE1IDkgMTggNTAgMTggNDEgMCA1MiAtNCA2NSAtMjR6JiMxMDttLTE1NCAtMTggYzYgLTEzIDIzIC0zNSAzNyAtNTAgbDI2IC0yOCAtOTUgMCBjLTUyIDAgLTExNyAtMyAtMTQ1IC02IGwtNTIgLTcmIzEwOzYgMjggYzUgMjYgMyAyNyAtMjIgMjEgLTIwIC01IC0yNiAtMyAtMjYgOSAwIDkgLTQgMTMgLTEwIDEwIC01IC0zIC0xMCAtMTUmIzEwOy0xMCAtMjYgMCAtMjUgLTM3IC02MSAtNTggLTU3IC05IDIgLTE3IDggLTE3IDEzIC0xIDYgLTYgMjAgLTEzIDMzIC0xMiAyMSYjMTA7LTEwIDIzIDM1IDQzIDcwIDMwIDk3IDMzIDExMiAxNSAxMSAtMTMgMTYgLTE0IDI5IC00IDE0IDEyIDgxIDI0IDE1NCAyNyAyOSAxJiMxMDs0MCAtNCA0OSAtMjF6IG03OTkgLTQ4IGM4IC01IDEyIC0xMiA5IC0xNSAtOCAtOCAtMzkgNSAtMzkgMTYgMCAxMSAxMSAxMSAzMCYjMTA7LTF6IG0tMTU1MCAtMTMgYzAgLTcgLTM1IC01NCAtNzcgLTEwNCAtOTYgLTExMSAtMjI4IC0zNDMgLTIwNSAtMzU3IDQgLTIgNTImIzEwOy03IDEwNyAtMTAgNzYgLTYgMTEzIC0xMyAxNTMgLTMyIDU0IC0yNiA1OSAtMzUgNDIgLTc4IC0xMiAtMzMgLTQwIC0zMyAtNzAmIzEwOy0xIC0zMCAzMSAtNzMgMzIgLTE5MCA1IC0xMDYgLTI1IC0xNTUgLTQxIC0yOTggLTkzIGwtMTEzIC00MSAtNjYgNjYgYy00MSA0MSYjMTA7LTY0IDcyIC02MCA4MCA0IDExIDMzIDE3IDExNCAyMiAxNjAgMTAgMjkzIDM5IDMxOCA3MCAxMSAxNCA1NiA5MiAxMDAgMTczIDY2JiMxMDsxMjIgOTQgMTYzIDE1OSAyMzEgNDMgNDUgODAgODIgODIgODIgMiAwIDQgLTYgNCAtMTN6IG0tOTMwIC0yOCBjNDkgLTggNjAmIzEwOy0xNCAxMDIgLTYxIGw0OCAtNTMgLTM4IC04IGMtMjAgLTUgLTgyIC0xMiAtMTM3IC0xNiAtODkgLTcgLTExNCAtMTMgLTIyMCYjMTA7LTU4IC0xMjAgLTUxIC0xOTAgLTc1IC0xOTggLTY3IC0yIDIgMCAzMiA1IDY2IDggNjIgOSA2MyA5MSAxNDAgbDgyIDc3IDEwNSYjMTA7LTUgYzU4IC0zIDEzMCAtMTAgMTYwIC0xNXogbS03MCAtMjkwIGMxMzIgLTMwIDE0NSAtMzkgODQgLTU5IC00NSAtMTUgLTcwIC04JiMxMDstMTE5IDM1IC00MyAzNyAtMzcgNDEgMzUgMjR6IG0tNzcgLTQ2IGM3NCAtNTIgNzAgLTY3IC0yNyAtOTMgLTI5IC04IC03NyAtMzUmIzEwOy0xMTkgLTY3IC03MyAtNTUgLTk0IC02MyAtMTAzIC0zOSAtNyAxOCAxMCA1MCA1MyAxMDEgMzYgNDQgMTMyIDEyNSAxNDcgMTI1JiMxMDs2IDAgMjcgLTEyIDQ5IC0yN3ogbTYwNyAyNCBjMCAtMiAtMTIgLTE0IC0yNyAtMjggLTI0IC0yMiAtMjQgLTEzIDAgMTkgOCAxMSYjMTA7MjcgMTcgMjcgOXogbTIwNDAgLTExNCBjMzYgLTYgNjAgLTE5IDYwIC0zNCAwIC01IC0zNCAtOSAtNzUgLTkgLTU4IDAgLTc3IDMmIzEwOy04MSAxNSAtOSAyMyAxNiA0OCA0MCA0MCAxMiAtNCAzNyAtOSA1NiAtMTJ6IG0tODUyIC0zOSBjMjggLTE5IDI5IC02MiAyJiMxMDstMTE1IC0yNSAtNDcgLTY4IC03NiAtMTI5IC04NSAtMzYgLTYgLTQ3IC0zIC01OCAxMiAtNDAgNTQgMTggMTYzIDEwMiAxOTIgNDMmIzEwOzE1IDU3IDE0IDgzIC00eiBtMzgwIC01MiBjMyAtOSAtMiAtMTMgLTE0IC0xMCAtOSAxIC0xOSA5IC0yMiAxNiAtMyA5IDIgMTMmIzEwOzE0IDEwIDkgLTEgMTkgLTkgMjIgLTE2eiBtLTY4IC04MiBjLTIyIC00MSAtMTkyIC0xODkgLTI1MSAtMjE5IC0zNCAtMTcgLTY1JiMxMDstMjkgLTY3IC0yNiAtMTMgMTMgMjIgNTggNjcgODUgMzEgMTkgNTMgNDEgNTkgNTkgNyAyMCAxOSAzMSAzOSAzNSAzNyA5IDEwMiYjMTA7NjEgMTE0IDk0IDkgMjQgMTAgMjQgMjkgNyAxNCAtMTMgMTcgLTIyIDEwIC0zNXogbS03OTIgLTEyIGM3IC0zNSAtNDMgLTM0JiMxMDstNjUgMCAtMTAgMTcgLTggMTkgMjUgMTcgMjUgMCAzOCAtNiA0MCAtMTd6IG0zOTkzIC0xNDkgYzEzMSAtODkgMTUzIC0xMDkmIzEwOzEyMCAtMTA5IC0xMiAwIC05MSAxNiAtMTc1IDM1IC04NSAxOSAtMTY0IDM1IC0xNzUgMzUgLTQ0IDAgLTM3IDM5IDIxIDExMiYjMTA7bDI5IDM4IDMyIC0xNyBjMTggLTggODQgLTUxIDE0OCAtOTR6IG0tMzY5MSAxNyBjMCAtMyAtNCAtOCAtMTAgLTExIC01IC0zJiMxMDstMTAgLTEgLTEwIDQgMCA2IDUgMTEgMTAgMTEgNiAwIDEwIC0yIDEwIC00eiBtMTM5IC0xMzggYzEwIC0yNyA2IC0zOCAtMTUmIzEwOy0zOCAtMTcgMCAtMjggMjQgLTIwIDQ1IDggMjIgMjUgMTggMzUgLTd6IG0zNDY3IC0yNCBjMTA0IC0xNCAxOTMgLTI5IDE5OCYjMTA7LTM0IDkgLTkgLTI1IC0xNiAtMjg5IC01OSAtMTA0IC0xNyAtMTkzIC0yNyAtMTk4IC0yMiAtNCA0IDcgMzggMjUgNzUgMjUgNTEmIzEwOzM3IDY2IDU0IDY2IDEyIDAgMTA3IC0xMSAyMTAgLTI2eiBtLTUxNjIgLTQwIGM1IC0xNCAtMzkgLTI0IC0xMDUgLTI0IC00NCAwJiMxMDstNDggMiAtMzggMTggOCAxMyAyNSAxNyA3NSAxNyAzOCAwIDY2IC01IDY4IC0xMXogbTE2NDIgNSBjNyAtMTIgLTIyIC00NiAtMzImIzEwOy0zNyAtOCA5IDUgNDggMTYgNDggNSAwIDEyIC01IDE2IC0xMXogbTM4NDggLTYwIGM4IC0xMiAxMyAtMzQgMTEgLTQ4IC0yMiYjMTA7LTEyNyAtNTkgLTMyMCAtNjYgLTMzOCAtMTEgLTI4IC0zOCAtMjkgLTMyOSAtOCAtMzE5IDIzIC0zNDggMzQgLTMzNyAxMTkgOSYjMTA7NjYgNTIgMTU0IDgxIDE2NyAyMyAxMSA1NzAgMTI2IDYwOCAxMjggOSAxIDI0IC05IDMyIC0yMHogbTE4MTYgLTYyIGMwIC04IC05JiMxMDstMjIgLTIwIC0zMiAtMTEgLTEwIC0yMCAtMjcgLTIwIC0zNyAwIC0xNiAzIC0xNyAyMiAtNyAyNiAxNCAxNDUgNiAxNjEgLTEwJiMxMDsxOSAtMTkgLTE2IC00MyAtNzUgLTUyIC0zMCAtNSAtNTggLTE2IC02NSAtMjYgLTEyIC0xNSAtMTUgLTE1IC0zNyA2IC0zMyAzMSYjMTA7LTc2IDIzIC03NiAtMTQgMCAtMTMgNSAtMjcgMTAgLTMwIDE3IC0xMCAxMSAtMjIgLTEyIC0yOSAtMzYgLTkgLTQ2IDEzIC01MCYjMTA7MTA5IC0yIDc2IC0xIDg5IDEyIDg2IDUzIC0xNCA2MSAtMTIgOTUgMTggMzkgMzMgNTUgMzkgNTUgMTh6IG02NDcgLTMgYzMgLTkmIzEwOy05IC01NCAtMjggLTEwMCBsLTM0IC04NCAtMjAgMjUgYy0xNiAyMSAtMzcgMjkgLTEwNyA0MiAtNDkgOCAtODggMTkgLTg4IDIzJiMxMDswIDQgNDQgMjcgOTggNTAgNTMgMjIgMTA2IDQ1IDExNyA1MCAzMSAxNCA1NSAxMSA2MiAtNnogbS0yMjg2IC0xMjAgbDE5IC0zMSYjMTA7LTQ1IC00MiBjLTUwIC00NiAtNzggLTU0IC03MSAtMTggMTcgNzkgMjkgMTMzIDMzIDE0MCA3IDEyIDQyIC0xNCA2NCAtNDl6JiMxMDttMjAyMSAtMzggYzEyNCAtMjYgMTY1IC00MSAxODEgLTY3IDIyIC0zNiAtNjcgLTIzOCAtMTA2IC0yMzkgLTExIC0xIC0xMDUgMjcmIzEwOy0yMzcgNzEgLTEzMSA0MiAtMjM0IDg1IC0yNDQgMTAxIC0xMyAyMiAxNiA2NCA2NCA5MiAzNSAyMSAxNzIgNjQgMjA1IDY1IDExJiMxMDsxIDczIC0xMCAxMzcgLTIzeiBtLTE3OTIgLTg3IGM0NSAtNDAgNDUgLTQxIDEwIC0yNCAtNDAgMjAgLTcwIDQ0IC03MCA1NyAwJiMxMDsxNSAxNSA3IDYwIC0zM3ogbS0xMzcgNyBjNiAtMTYgLTExIC0zNiAtMzAgLTM2IC0xNiAwIC0xNyAyMiAtMSAzOCAxNiAxNiAyNSYjMTA7MTUgMzEgLTJ6IG0xNDg5IDkgYzkgLTQgMTIgLTE5IDEwIC01MCAtNSAtNTQgOSAtNzUgNDkgLTc1IDQwIDAgMjQwIC02NSAzMTQmIzEwOy0xMDIgODcgLTQ0IDExNSAtNjYgMTE1IC05MSAtMSAtMzMgLTM2IC0xMDUgLTgxIC0xNjMgLTIxIC0yOCAtMzkgLTU0IC0zOSYjMTA7LTU3IDAgLTE4IC0xMDcgLTE2MCAtMTU5IC0yMTEgLTU0IC01MyAtNjIgLTU4IC05NSAtNTQgLTMwIDMgLTM1IDEgLTMwIC0xMSYjMTA7MjMgLTU0IDE4IC02OCAtNTMgLTEzNSAtMzggLTM3IC04OSAtNzkgLTExNCAtOTUgLTI0IC0xNiAtNjQgLTUwIC04OSAtNzYgLTI1JiMxMDstMjYgLTY1IC02MCAtODkgLTc2IC00MiAtMjcgLTQ2IC0yOCAtNjMgLTEyIC0xNyAxNSAtMTggMTUgLTE4IC00IDAgLTM4IC0xMTcmIzEwOy0xMjIgLTI0MiAtMTc0IC0zOCAtMTUgLTgxIC0zNyAtOTYgLTQ4IC0zNyAtMjYgLTEyMyAtNTQgLTI2NiAtODYgLTI3MSAtNjAmIzEwOy00MzUgLTgwIC00NTEgLTU1IC0zIDUgMTkgNjIgNTAgMTI3IDMwIDY0IDU0IDEyMSA1MiAxMjcgLTQgMTMgLTY5IC05MSAtMTEzJiMxMDstMTgxIC0zNSAtNzEgLTM2IC03MyAtNzMgLTczIC01MCAwIC0yMDAgMjAgLTIyOCAzMSAtMTYgNiAtMjMgMTcgLTIzIDM0IDAgMjkmIzEwOzAgMjkgLTM2IDEwIC0zMiAtMTcgLTgwIC0xMiAtMTI5IDEzIC01OCAyOSAtNTkgNTMgLTMgMTMyIDIzIDMzIDM5IDYzIDM1IDY2JiMxMDstOCA4IC0zOSAtMjcgLTczIC04MyAtMTQgLTI0IC0zMiAtNDMgLTQwIC00MyAtMTcgMCAtMTA3IDQ0IC0xNDYgNzIgLTM2IDI1JiMxMDstMzYgNjAgLTEgMTA3IDQxIDU1IDIxOSAyNjcgMjk2IDM1MyA3MiA4MiAxMjYgMTIyIDE0OCAxMTMgOCAtNCAzMSAtMzAgNTImIzEwOy01OSAzNiAtNTAgNDEgLTU0IDkyIC02MCAyOSAtMyA2NyAtMyA4NCAwIDE3IDQgNjAgMSA5NSAtNiA2NCAtMTIgNjYgLTEyIDk3JiMxMDsxNCAyNCAyMSA0MSAyNiA4MiAyNiAyOSAwIDU5IDUgNjcgMTAgMjUgMTYgLTggMzEgLTU1IDI1IGwtNDAgLTYgMjUgMjAgYzQ1JiMxMDszNyA3MCAzOCAxMDIgMiAxNSAtMTcgMjggLTM4IDI4IC00NSAwIC04IDcgLTE2IDE1IC0yMCA4IC0zIDEyIC0xMiA5IC0yMSAtNSYjMTA7LTEzIDEgLTE0IDQyIC05IDU5IDggNjMgMTEgNzQgNjAgNyAyOSA1IDQ0IC04IDY2IC05IDE1IC0xNCAyOSAtMTEgMzEgMiAyIDI0JiMxMDs3IDQ4IDExIGw0MyA3IC03IC03MSBjLTUgLTQ4IC00IC03MCA0IC03MCA2IDAgMTEgLTExIDExIC0yNSAwIC0xNCAyIC0yNSA1JiMxMDstMjUgMyAwIDMwIDE0IDYwIDMxIDUwIDI4IDYxIDMxIDExMCAyNCBsNTQgLTYgNDkgNTAgYzM4IDQxIDU1IDUxIDgwIDUxIDI1IDAmIzEwOzM1IC02IDQyIC0yNCAxNSAtNDEgMzAgLTQxIDMwIDEgMCAzNiAzIDQxIDQ1IDYxIDI1IDEyIDUwIDIyIDU1IDIyIDUgMCAyNiYjMTA7LTI1IDQ2IC01NSAzMyAtNDkgNTQgLTY4IDU0IC00OCAwIDMgLTE2IDM0IC0zNSA2OSAtMTkgMzQgLTM1IDY3IC0zNSA3MyAwIDIyJiMxMDszOCAxMCAxNDQgLTQ0IDU5IC0zMCAxMTUgLTU1IDEyNCAtNTUgMjIgMCAtMzUgNDggLTEwOCA5MSAtMzAgMTggLTY1IDM4IC03NyYjMTA7NDYgbC0yMyAxMyAyMCAzOCBjMTEgMjAgMjAgNDcgMjAgNjAgMCAyOCA0OCA3OSA4MyA4NyAyOSA4IDEwMyAtMTQgMjYwIC03NiYjMTA7MTA4IC00MyAxMzcgLTQ3IDE2MiAtMjIgMTYgMTYgMTYgMTcgMCAyOSAtOSA3IC0xMDEgMzMgLTIwMyA1OCAtMTAyIDI1IC0xODkmIzEwOzQ5IC0xOTUgNTUgLTEzIDEzIDE3IDk4IDU1IDE1NiAxNyAyNiAyNyA1MCAyMiA1MyAtNSA0IC0xNCAxNiAtMjAgMjcgLTggMTQmIzEwOy0yNSAyMSAtNjAgMjUgLTM3IDQgLTUwIDkgLTUyIDIzIC02IDI4IDE2IDQ5IDM4IDM3IDMwIC0xNiAzOCAtMTIgNDUgMjMgMTEmIzEwOzQ4IDEzIDUxIDM3IDQyeiBtLTI0OTcgLTk0IGMtMyAtNiAtMTEgLTExIC0xNyAtMTEgLTYgMCAtNiA2IDIgMTUgMTQgMTcgMjYmIzEwOzEzIDE1IC00eiBtNDMwIC02MCBjMzYgLTYgMzggLTggMjAgLTE4IC0yOCAtMTUgLTQxMyAtMTIzIC00NDAgLTEyMyAtMzcgMCYjMTA7LTQ4IDIzIC00MCA4NSBsNiA1NCAxMDIgNCBjMjA0IDYgMzEzIDYgMzUyIC0yeiBtMjEwIC00MSBjNCAtNiAtMzUgLTUxIC04NyYjMTA7LTEwMSAtNzYgLTc0IC0xMTAgLTk5IC0xODcgLTEzNyAtOTIgLTQ2IC05MyAtNDcgLTU4IC01MCAyMSAtMiAzNyAtNyAzNyAtMTEmIzEwOzAgLTEwIC0zMDggLTMxMSAtMzE4IC0zMTEgLTE3IDAgLTQ3IDY4IC01MyAxMjAgLTQgMzAgLTEyIDczIC0xOCA5NSAtMTIgNDcmIzEwOy0xNSAyMDIgLTMgMjA5IDcgNCAxNjUgNTQgNTI3IDE2NyA5NSAyOSAxNTAgMzYgMTYwIDE5eiBtMTIgLTg1IGMtNCAtOCAtMTEmIzEwOy0xNSAtMTcgLTE1IC0xNCAwIC0xMyAyNyAzIDMzIDE2IDYgMjEgMSAxNCAtMTh6IG0tNzE3IC02NSBjMCAtNSAtNSAtMTAgLTExJiMxMDstMTAgLTUgMCAtNyA1IC00IDEwIDMgNiA4IDEwIDExIDEwIDIgMCA0IC00IDQgLTEweiBtNzU0IC05NSBjMTggLTQ0IDQzIC05NiYjMTA7NTQgLTExNSAxMiAtMTkgMjIgLTUxIDIyIC03MCAtMSAtNzQgLTU2IC0xNzMgLTExNiAtMjExIC0xOCAtMTEgLTM5IC0zMyAtNDcmIzEwOy00OCAtMjQgLTQ4IC0yOTkgLTM3MSAtMzE2IC0zNzEgLTI5IDAgLTkwIDU5IC0xMTEgMTA4IC0xMSAyNSAtMzggNjkgLTYwIDk3JiMxMDstMjIgMjggLTUxIDc3IC02NSAxMDkgbC0yNiA1OCA2MCA2NiBjMzMgMzcgMTMzIDE0MCAyMjMgMjI5IDEyOSAxMjggMTc1IDE2NyYjMTA7MjE4IDE4NiAzMCAxMyA2NiAyOSA4MCAzNSAxNCA2IDMxIDEwIDM4IDkgOCAtMSAyOSAtMzggNDYgLTgyeiBtMTI4IDM4IGMxMCYjMTA7LTkgMTggLTIyIDE4IC0yOSAwIC03IDggLTIwIDE3IC0zMCAxNCAtMTMgMTUgLTE4IDUgLTIyIC0xMCAtMyAtNiAtMTIgMTMgLTMyJiMxMDsyOSAtMzAgMjYgLTUwIC02IC01MCAtMjMgMCAtNjYgODMgLTc2IDE0NSAtNiAzOSAxIDQzIDI5IDE4eiBtNzggLTEzIGMxMyAtOCYjMTA7MTMgLTExIC0xIC0yNSAtMTUgLTE1IC0xNyAtMTUgLTIxIDkgLTYgMjggLTEgMzEgMjIgMTZ6IG0tNDY0MSAtOTAgYy0xOCAtMzYmIzEwOy0zOSAtNDYgLTM5IC0xOSAwIDE3IDMyIDU5IDQ1IDU5IDEwIDAgOCAtMTEgLTYgLTQweiBtNDk3MSAxNiBjMCAtMyAtNCAtOCYjMTA7LTEwIC0xMSAtNSAtMyAtMTAgLTEgLTEwIDQgMCA2IDUgMTEgMTAgMTEgNiAwIDEwIC0yIDEwIC00eiBtMzUgLTgzIGMtNCAtMTgmIzEwOzEgLTM3IDE5IC02NCAxNSAtMjEgMjYgLTQxIDI2IC00NCAwIC0zIC0xNSAtMyAtMzMgMCAtMjQgNSAtMzcgMiAtNDYgLTkgLTE5JiMxMDstMjIgLTYgLTQ2IDI0IC00NiAyNyAwIDI4IC0xIDE5IC0yNCAtOSAtMjIgLTI0IC0yMCAtNTcgMTAgbC0yOSAyNSAxNiA0NiBjOSYjMTA7MjYgMTYgNTggMTYgNzMgMCAzMSAyNyA3MyA0MSA2NCA2IC0zIDggLTE4IDQgLTMxeiBtLTMxNSAtNDMgYzAgLTUgLTIgLTEwIC00JiMxMDstMTAgLTMgMCAtOCA1IC0xMSAxMCAtMyA2IC0xIDEwIDQgMTAgNiAwIDExIC00IDExIC0xMHogbTc4MiAtNzcgYzIgLTE3IDEyJiMxMDstMzIgMjcgLTM5IDEzIC03IDI2IC0xNiAzMCAtMjEgMyAtNCAyNiAtMjIgNTAgLTM4IDQ4IC0zMiAzNyAtNDYgLTIwIC0yNiAtMTYmIzEwOzYgLTQ0IDggLTYxIDQgLTMwIC02IC0zMCAtNSAtMjMgMjYgNSAyMiAyIDM5IC05IDU2IC0xOCAyNyAtMjEgNjUgLTcgNjUgNSAwJiMxMDsxMSAtMTIgMTMgLTI3eiBtLTI5MCAtMjMgYzQwIDAgNTEgLTcgODMgLTUwIDI5IC0zOSAzMSAtNjIgOSAtODUgLTIyIC0yMSAtMzImIzEwOy0xMCAtMzYgNDAgLTMgMzYgLTYgNDAgLTM4IDQ4IC0xOSA0IC00NiAxMSAtNjAgMTQgLTMxIDggLTY0IDM4IC01NSA1MiA0IDgmIzEwOzE1IDYgMzUgLTQgMTYgLTggNDQgLTE1IDYyIC0xNXogbS01OTY3IC0yMCBjLTMgLTUgLTExIC0xMCAtMTYgLTEwIC02IDAgLTcgNSYjMTA7LTQgMTAgMyA2IDExIDEwIDE2IDEwIDYgMCA3IC00IDQgLTEweiBtLTEwNSAtNTAgYy0yNCAtMTUgLTM3IC0xMSAtMTYgNSAxMSA4JiMxMDsyMiAxMiAyNSA5IDMgLTMgLTEgLTkgLTkgLTE0eiBtLTI2MTYgLTE5IGM4IC0xMiAtMTggLTIxIC02MiAtMjEgLTQyIDAgLTMzJiMxMDsxNiAxMyAyMyAxNyAyIDMzIDUgMzcgNiA0IDAgOSAtMyAxMiAtOHogbTI1NDYgLTE1IGMwIC0yIC01NyAtMzggLTEyNyAtNzkmIzEwOy03MSAtNDEgLTE0MyAtODcgLTE2MiAtMTAxIC00MyAtMzIgLTUxIC0zMiAtNTEgLTIgMCAxOSA4IDI3IDM4IDM3IDIwIDYgNDImIzEwOzE1IDQ3IDE5IDE2IDEzIDIzOSAxMzAgMjQ4IDEzMCA0IDAgNyAtMiA3IC00eiBtLTEyODUgLTMyMyBjLTYgLTYwIC0zMyAtMjA2JiMxMDstNTEgLTI3NyAtOCAtMzQgLTMyIC0zMyAtMzkgMiAtNCAxNSAtMTAgMzUgLTE2IDQ0IC01IDEwIC05IDI3IC05IDM5IDAgMjYmIzEwOy0xNiA1NyAtNDggOTEgLTIyIDI0IC0yNCAzMCAtMTMgNTUgMjggNjcgOTIgMTExIDE2MCAxMTMgMjMgMCAyMyAtMSAxNiAtNjd6JiMxMDttLTE0MDYgMzAgYzE3IC0zMyAxOCAtNjggMSAtNjQgLTggMiAtMzEgNSAtNTEgNSAtMzggMiAtNzIgMjIgLTY2IDM5IDQgMTIgNjImIzEwOzM1IDg5IDM2IDEwIDEgMjEgLTcgMjcgLTE2eiBtMjU4NiAtMyBjMyAtNSAtMyAtMTAgLTE0IC0xMCAtMTIgMCAtMjEgNSAtMjEmIzEwOzEwIDAgNiA2IDEwIDE0IDEwIDggMCAxOCAtNCAyMSAtMTB6IG0tMTM2NSAtMTEgYzAgLTE5IC0zNCAtNjkgLTQ2IC02OSAtNyAwJiMxMDstMTQgNyAtMTggMTUgLTMgOSAtMTggMTUgLTM3IDE1IC0yNyAwIC0zMCAyIC0xOSAxNSAyMiAyNyAxMjAgNDYgMTIwIDI0eiYjMTA7bS0xNDggLTg1IGM3MyAtMjMgNzggLTM4IDMzIC04NCAtNDEgLTQyIC01NSAtNDMgLTU1IC01IDAgMjAgLTYgMjQgLTQyIDMwJiMxMDstNjkgMTEgLTc4IDE1IC03OCAzOSAwIDQ4IDM1IDUzIDE0MiAyMHogbS0xMzY3IC04MiBjLTIgLTMgLTExIC0yIC0yMCAxIC0xOCYjMTA7OCAtMjEgNjcgLTIgODYgMTAgMTAgMTMgMyAxOSAtMzYgNCAtMjYgNSAtNDkgMyAtNTF6IG04MTAgNjkgYy0zIC02IC0xMSAtMTEmIzEwOy0xNyAtMTEgLTYgMCAtNiA2IDIgMTUgMTQgMTcgMjYgMTMgMTUgLTR6IG02NzUgLTc2IGMwIC05IDcgLTE4IDE1IC0yMSA4IC00JiMxMDsxNSAtMTEgMTUgLTE2IDAgLTUgMTQgLTQzIDMwIC04NSAzMyAtODIgMzcgLTEzNiAxNiAtMTg4IC0yNCAtNTYgLTQ2IC00NiAtNDYmIzEwOzIxIDAgODIgLTI0IDExMiAtOTMgMTE2IC02MiA0IC02NCAxNCAtMTEgOTAgMTkgMjggMzQgNTYgMzQgNjIgMCAxNCAyMCAzNiAzMiYjMTA7MzYgNCAwIDggLTcgOCAtMTV6IG0tMjM5IC0xNiBjMjUgLTEzIDE2IC0yOSAtMTcgLTI5IC0yMyAwIC0zMiAxOCAtMTcgMzMgOCA5JiMxMDsxMSA5IDM0IC00eiBtLTEwODYgLTkgYy0zIC01IC0xMSAtMTAgLTE2IC0xMCAtNiAwIC03IDUgLTQgMTAgMyA2IDExIDEwIDE2JiMxMDsxMCA2IDAgNyAtNCA0IC0xMHogbTUgLTQ1OSBjMCAtNiAtNCAtMTMgLTEwIC0xNiAtNSAtMyAtMTAgMSAtMTAgOSAwIDkgNSAxNiYjMTA7MTAgMTYgNiAwIDEwIC00IDEwIC05eiBtMTcwIC0xNjcgYzAgLTE1IC04NyAtNjEgLTk2IC01MSAtNiA1IDc2IDY2IDg5IDY3IDQmIzEwOzAgNyAtNyA3IC0xNnogbS0xMCAtMTA1IGMwIC0xNyAtNSAtNDAgLTExIC01MSAtMTEgLTIwIC0xMjggLTc5IC0xODEgLTkyIC0yNiYjMTA7LTYgLTI4IC00IC0yOCAyMyAwIDU1IDE1IDc4IDU3IDg0IDIxIDQgNjMgMjAgOTMgMzYgMzAgMTcgNTggMzAgNjMgMzEgNCAwIDcmIzEwOy0xNCA3IC0zMXogbS0yNDQgLTU2IGMtMTUgLTk1IC0yNSAtMTEyIC03OSAtMTQzIC00NyAtMjcgLTQ5IC0zMCAtMTggLTI0IDIyJiMxMDs1IDM2IDMgNDEgLTYgOSAtMTQgLTIyIC0xMzUgLTQ2IC0xODMgLTIxIC00MCAtMTAzIC0xMjcgLTEyMCAtMTI3IC03IDAgLTMyJiMxMDsxOCAtNTQgMzkgbC00MSAzOSAyMiA0NCBjMjcgNTQgNzUgMTI0IDExMSAxNjMgMTUgMTcgNDUgNTcgNjcgOTAgNDEgNjIgMTA4JiMxMDsxNDUgMTE4IDE0NSAzIDAgMyAtMTcgLTEgLTM3eiBtNTE1IC01MyBjMzcgLTIwIDIzIC01NiAtNTkgLTE0OCBsLTMyIC0zNyAtMjUmIzEwOzI4IGMtMjUgMjggLTU5IDEyMyAtNDkgMTM4IDMgNSAxNSA3IDI3IDQgMTIgLTIgMzYgMiA1MiA5IDM3IDE4IDYxIDE5IDg2IDZ6JiMxMDttLTMzMSAtMzggYzAgLTQgLTQ4IC01MiAtMTA3IC0xMDcgLTk0IC04NyAtMTA4IC05NyAtMTExIC03NyAtNCAyOSAyNCAxMjYgNDAmIzEwOzE0MCAxNSAxMiAxMzUgNTEgMTYxIDUxIDkgMSAxNyAtMiAxNyAtN3ogbTcwIC03NyBjMCAtNzIgLTE5IC0xNzAgLTU1IC0yOTAmIzEwOy0yOSAtOTQgLTI5IC05NSAtMTIgLTk1IDYgMCAyMyAxOSAzNyA0MSAyMyAzOCAxNTIgMTU5IDE2OSAxNTkgNCAwIDE2IC05IDI2JiMxMDstMTkgMTYgLTE5IDE2IC0yNCAtMTEgLTEwNyAtMjAgLTYxIC0zNyAtOTMgLTU0IC0xMDYgLTQzIC0zMSAtMjQ0IC02OCAtMjc2JiMxMDstNTAgLTE1IDggLTEyIDEzIDI1IDM3IDYyIDQyIDQyIDQxIC0zNyAtMSBsLTcwIC0zNyAtNDggMjQgYy02MCAzMCAtNjUgNTQmIzEwOy0zMyAxNjEgMTkgNjUgMjkgODAgOTggMTUyIDk3IDEwMCAyMjEgMjA3IDIzMiAyMDAgNSAtMyA5IC0zNCA5IC02OXogbTY4MCYjMTA7LTc0IGMwIC04IC00MyAtNDEgLTU1IC00MSAtNyAwIC02IDM1IDIgNDMgMTAgMTAgNTMgOCA1MyAtMnogbS0xMjEwIC05IGMwJiMxMDstMTUgLTYyIC04MiAtNzEgLTc3IC0xNiAxMCAtMTAgMzggMTMgNjIgMjAgMjIgNTggMzIgNTggMTV6IG01ODUgLTExOCBjLTI3JiMxMDstMjQgLTU1IC00NCAtNjEgLTQ0IC0xNCAwIC0zIDU2IDIyIDEyMSBsMTcgNDEgMzYgLTM3IDM2IC0zNiAtNTAgLTQ1eiBtMTY1JiMxMDs5NSBjLTcgLTExIC0xNCAtMTggLTE3IC0xNSAtOCA4IDUgMzYgMTcgMzYgNyAwIDcgLTYgMCAtMjF6IG0xMTYgLTEgYzM3IC0xNiYjMTA7NjkgLTIyIDEyNyAtMjIgNjMgLTEgNzcgLTMgNzUgLTE2IC01IC0yNiAtNTEgLTQwIC0xMzYgLTQwIC0xMDQgMCAtMTU3IDE5JiMxMDstMTQ3IDUyIDcgMjEgMjQgNDggMzAgNDggMSAwIDI0IC0xMCA1MSAtMjJ6IG0tMTcgLTE4OSBjMTcgLTYgMzEgLTE1IDMxIC0yMSYjMTA7MCAtMTMgLTg4IC01MSAtMTAwIC00MyAtMTEgNyAtMTMgMzUgLTQgNTkgNyAxOSAyOSAyMCA3MyA1eiIvPiYjeGE7PHBhdGggZD0iTTY3MTEgNjI5NSBjLTEwMCAtNTAgLTE3OCAtOTYgLTE5MCAtMTExIC0yMiAtMjggLTI4IC03NCAtMTEgLTc0IDIzJiMxMDswIDE1MCA3NiAxNTYgOTMgNCAxMSAxNiAxNyAzOCAxNyAyMCAwIDQwIDggNTEgMjAgMTAgMTEgMjEgMTcgMjYgMTUgMTcgLTExJiMxMDs5MCAyOCAxMDQgNTYgMTcgMzIgMjAgNjkgNiA2OSAtNiAwIC04NiAtMzggLTE4MCAtODV6Ii8+JiN4YTs8cGF0aCBkPSJNNjYxMCA2MTAyIGMtMTIyIC02MSAtMTQwIC04MCAtMTI2IC0xMzYgMTAgLTM5IDM2IC0zMyAxNjQgMzUgbDExMiYjMTA7NjAgMCA0OSBjMCA0MSAtMyA1MCAtMTcgNTAgLTEwIDAgLTcwIC0yNiAtMTMzIC01OHoiLz4mI3hhOzxwYXRoIGQ9Ik02NTg4IDU3OTkgYy0zNiAtMjAgLTkgLTg5IDM0IC04OSAyMCAwIDMyIDU1IDE4IDgxIC0xMiAyMSAtMjYgMjMmIzEwOy01MiA4eiIvPiYjeGE7PHBhdGggZD0iTTY0NTUgNTY5MCBjLTggLTEzIDQgLTMyIDE2IC0yNSAxMiA4IDEyIDM1IDAgMzUgLTYgMCAtMTMgLTQgLTE2JiMxMDstMTB6Ii8+JiN4YTs8cGF0aCBkPSJNMzc1NiA2MjAyIGMtMyAtNiAtMSAtMTQgNSAtMTcgMTUgLTEwIDI1IDMgMTIgMTYgLTcgNyAtMTMgNyAtMTcgMXoiLz4mI3hhOzxwYXRoIGQ9Ik00MDI3IDUyNTMgYy00IC0zIC03IC0xMSAtNyAtMTcgMCAtNiA1IC01IDEyIDIgNiA2IDkgMTQgNyAxNyAtMyAzJiMxMDstOSAyIC0xMiAtMnoiLz4mI3hhOzxwYXRoIGQ9Ik0xMTIyNiAzNzg1IGMtMyAtOSAxIC0xOCAxMCAtMjIgMTkgLTcgMjggMiAyMSAyMiAtOCAxOSAtMjMgMTkgLTMxJiMxMDsweiIvPiYjeGE7PHBhdGggZD0iTTExMTAxIDI3NzMgYzEyIC0zMiAyOCAtNTMgNDAgLTUzIDUgMCAtMyAxOCAtMTcgNDAgLTMxIDQ3IC0zNyA1MCYjMTA7LTIzIDEzeiIvPiYjeGE7PHBhdGggZD0iTTEwODkwIDI2OTggYzAgLTEzIDUgLTMwIDEwIC0zOCA3IC0xMSAxMCAtNyAxMCAxNyAwIDE3IC00IDM1IC0xMCYjMTA7MzggLTYgMyAtMTAgLTQgLTEwIC0xN3oiLz4mI3hhOzxwYXRoIGQ9Ik0xMDE0MCAyNjgxIGMtMTQgLTI3IDkgLTQwIDI3IC0xNiAxNyAyNCAxNyAzNSAtMiAzNSAtOCAwIC0xOSAtOSYjMTA7LTI1IC0xOXoiLz4mI3hhOzxwYXRoIGQ9Ik0xMDEyMCAyNTk5IGMtMTAgLTE4IC05IC0yMCAxMiAtMTcgMTIgMiAyNCAxMSAyNiAyMSA1IDI0IC0yNSAyMiYjMTA7LTM4IC00eiIvPiYjeGE7PHBhdGggZD0iTTEwMDUxIDI0NjkgYy0yMCAtMzIgLTI3IC01OSAtMTYgLTU5IDggMCA0NyA4MiA0MSA4NyAtMyAzIC0xNCAtMTAmIzEwOy0yNSAtMjh6Ii8+JiN4YTs8cGF0aCBkPSJNOTE4NSAyNzAxIGMtODEgLTMzIC0xOTUgLTk4IC0xOTUgLTExMSAwIC01IDQgLTExIDkgLTE1IDExIC02IDI3MSYjMTA7MTM0IDI3MSAxNDcgMCAxMiAtOSAxMCAtODUgLTIxeiIvPiYjeGE7PHBhdGggZD0iTTE1OTAgMTM1MCBjMCAtNSA1IC0xMCAxMSAtMTAgNSAwIDcgNSA0IDEwIC0zIDYgLTggMTAgLTExIDEwIC0yIDAmIzEwOy00IC00IC00IC0xMHoiLz4mI3hhOzxwYXRoIGQ9Ik00NTkwIDk3ODYgYzAgLTcgMTIyIC00OCAxMjcgLTQyIDggOCAtNzcgNDYgLTEwNCA0NiAtMTMgMCAtMjMgLTImIzEwOy0yMyAtNHoiLz4mI3hhOzxwYXRoIGQ9Ik04NDQyIDgzMDkgYzYgLTE4IDIxMCAtMjAxIDIxNyAtMTk0IDcgOCAtOTIgMTA3IC0xNjMgMTYyIC0zMiAyNiYjMTA7LTU3IDQwIC01NCAzMnoiLz4mI3hhOzxwYXRoIGQ9Ik05MDU1IDYwNjAgYzMgLTUgOCAtMTAgMTEgLTEwIDIgMCA0IDUgNCAxMCAwIDYgLTUgMTAgLTExIDEwIC01IDAmIzEwOy03IC00IC00IC0xMHoiLz4mI3hhOzxwYXRoIGQ9Ik0xMTI5OSA1MjEwIGMtOSAtNSAtNTEgLTY1IC05NCAtMTMyIC05OCAtMTU1IC0xNjAgLTI0OSAtMjA2IC0zMTMmIzEwOy0yMCAtMjcgLTQxIC02NiAtNDcgLTg1IGwtMTIgLTM1IDMxIDM1IGMyNSAyOCAyNjMgMzc3IDM0MiA1MDAgMTkgMzAgMTIgNDQmIzEwOy0xNCAzMHoiLz4mI3hhOzxwYXRoIGQ9Ik05MTQ0IDUwOTIgYy04NCAtNzMgLTEwMiAtMTAyIC02MiAtMTAyIDEzIDAgMzIgNiA0MyAxNCAyNiAxOCAxMjcmIzEwOzQ4IDEzNCA0MCAzIC00IDIgLTggLTQgLTExIC0zMSAtMTIgLTE0OSAtOTAgLTE1MCAtOTggMCAtNSAxMiAtMTEgMjcgLTEzIDI1JiMxMDstMyAyNiAtNiAyMSAtMzkgLTUgLTI5IC0zIC0zNSA4IC0zMSAxMSA1IDE4MyAxMjkgMTk4IDE0NCAzIDIgLTUgMTQgLTE1IDI3JiMxMDstMTEgMTIgLTI4IDM0IC0zNyA1MCAtMTAgMTUgLTI2IDI3IC0zNyAyNyAtMjEgMCAtMjcgMTUgLTEwIDI1IDE5IDEyIDEwIDM1JiMxMDstMTQgMzUgLTE1IDAgLTUzIC0yNSAtMTAyIC02OHoiLz4mI3hhOzxwYXRoIGQ9Ik0xMDg4MCA1MDg1IGMtOCAtOSAtOCAtMTUgLTIgLTE1IDEyIDAgMjYgMTkgMTkgMjYgLTIgMiAtMTAgLTIgLTE3JiMxMDstMTF6Ii8+JiN4YTs8cGF0aCBkPSJNOTMwMyA0OTE5IGMtMjMgLTExIC02MiAtMzggLTg1IC01OSBsLTQzIC0zOCAyNSAtNDcgYzM0IC02MyA0NiAtNzImIzEwOzczIC01NSAxMiA4IDU1IDMyIDk2IDU1IDk0IDUxIDEwNCA2NSA3MCAxMDIgLTE0IDE1IC0yOSAzNiAtMzIgNDYgLTkgMjMgLTUyJiMxMDsyMiAtMTA0IC00eiIvPiYjeGE7PHBhdGggZD0iTTEwNjcxIDQ4NTEgYy0xMyAtMyAtMzIgLTE4IC00MyAtMzEgLTIwIC0yOCAtNDEgLTkwIC0yOSAtOTAgNyAwIDkwJiMxMDs5MyAxMDUgMTE4IDggMTMgNCAxNCAtMzMgM3oiLz4mI3hhOzxwYXRoIGQ9Ik0xMDQ4MyA0ODE2IGMtMTYgLTM0IC0xMyAtNjYgNyAtNjYgMTMgMCAzMCA0MyAzMCA3NiAwIDM0IC0xOCAzMCYjMTA7LTM3IC0xMHoiLz4mI3hhOzxwYXRoIGQ9Ik0xMDgwNyA0ODMzIGMtMTEgLTEwIC04IC01MyAzIC01MyA2IDAgMTAgMTQgMTAgMzAgMCAzMSAtMiAzNSAtMTMmIzEwOzIzeiIvPiYjeGE7PHBhdGggZD0iTTkzNzIgNDc1MSBjLTg0IC0zNCAtMTAyIC00NiAtMTAyIC03MiAwIC0xNCA3IC0xOSAyNSAtMTkgMjIgMCAyNCYjMTA7LTMgMTUgLTE5IC0zMiAtNjAgNCAtNjYgNjkgLTEzIDI1IDIyIDY1IDUyIDg5IDY3IDM1IDIzIDQyIDMzIDQwIDU0IC00IDM3JiMxMDstNDYgMzggLTEzNiAyeiIvPiYjeGE7PHBhdGggZD0iTTk4MjEgNDcxMCBjMTMgLTIyIDI2IC00MCAzMSAtNDAgMTMgMCAxMCAxMiAtMTIgNDggLTI4IDQ2IC00NiA0MCYjMTA7LTE5IC04eiIvPiYjeGE7PHBhdGggZD0iTTk0NTUgNDY1MyBjLTY1IC0zNCAtMTI1IC04MSAtMTI1IC05OSAwIC0xOSAzNSAtMTggNjYgMiAzNSAyNCA0MiA5JiMxMDsxMSAtMjQgLTI3IC0yOCAtMzYgLTYyIC0xNiAtNjIgMTUgMCAyMDMgMTEwIDIxMSAxMjMgMTIgMTkgLTIyIDMwIC01OCAxOSAtNDImIzEwOy0xMyAtNDQgLTMgLTMgMjEgNzMgNDEgLTggNjEgLTg2IDIweiIvPiYjeGE7PHBhdGggZD0iTTExNTYwIDQ2NjkgYy00MyAtMTcgLTc4IC01OSAtNTAgLTU5IDE1IDAgOTAgNTEgOTAgNjEgMCAxMSAtOCAxMSYjMTA7LTQwIC0yeiIvPiYjeGE7PHBhdGggZD0iTTEwODY4IDQ1NjMgYy0zNyAtMzYgLTU4IC0zNyAtNTggLTIgMCAxMCAtNCAxOSAtOSAxOSAtMTMgMCAtMjEgLTM4JiMxMDstMjEgLTEwMiAwIC0zMSAtNCAtNjAgLTEwIC02MyAtNSAtMyAtMTAgLTE3IC0xMCAtMzEgMCAtMTQgLTYgLTI0IC0xNCAtMjQgLTgmIzEwOzAgLTI3IC0xMSAtNDIgLTI1IC0xNSAtMTQgLTMxIC0yNSAtMzUgLTI1IC0xMiAwIC0xMSAtNDcgMSAtNTUgNSAtMyAyMyAxMCA0MSYjMTA7MzAgMjUgMjcgNDAgMzUgNjYgMzUgMzAgMCAzMyAyIDIzIDIwIC0xMSAyMSAxNyA5MSA4MSAxOTggMTcgMjkgMzAgNTUgMjcgNTcmIzEwOy0yIDIgLTIwIC0xMiAtNDAgLTMyeiIvPiYjeGE7PHBhdGggZD0iTTExMzgzIDQ0NjMgYy0zOSAtNDggLTkxIC0xMTggLTExNyAtMTU0IC0yNSAtMzYgLTUyIC03MiAtNjAgLTc4IC04JiMxMDstNyAtMjAgLTI4IC0yNyAtNDggLTE3IC01MiAtMSAtNjAgNTkgLTI5IDI4IDE0IDE2NSA3MyAzMDUgMTMwIDI5MCAxMTkgNDA3JiMxMDsxNzMgNDA3IDE4NiAwIDE0IDcgMTYgLTE1MiAtNDUgLTE5MiAtNzUgLTIxNyAtODUgLTQwNiAtMTcyIC0xMDUgLTQ4IC0xNjcmIzEwOy03MiAtMTczIC02NiAtNyA3IDMgMjggMjcgNTkgMTUwIDE5NiAyMTUgMjg2IDIxMiAyOTUgLTIgNiAtMzUgLTI5IC03NSAtNzh6Ii8+JiN4YTs8cGF0aCBkPSJNOTU2NyA0NTI5IGMtNTYgLTEzIC0xNDQgLTU3IC0xNTEgLTc1IC05IC0yMiAxIC0zNCAzMCAtMzQgMjQgMCAzMiYjMTA7LTE0IDE0IC0yNSAtMTMgLTggLTEzIC00NSAxIC00NSAxMiAwIDE3OCAxMTcgMTk2IDEzOCAxNyAyMSAtMiA1MiAtMzAgNTEgLTEyJiMxMDstMSAtMzkgLTUgLTYwIC0xMHoiLz4mI3hhOzxwYXRoIGQ9Ik0xMTE2NSA0NTA4IGMtNDQgLTE3IC03NSAtMzMgLTY4IC0zNSAxMSAtNCAxNjMgNTUgMTYzIDYzIDAgOCAtMTUgMyYjMTA7LTk1IC0yOHoiLz4mI3hhOzxwYXRoIGQ9Ik0xMDk1OSA0NDYwIGMtMTggLTIyIC00MSAtNDIgLTUyIC00NiAtMTEgLTQgLTM1IC0xMyAtNTQgLTIwIC0zMyYjMTA7LTE0IC0zMyAtMTUgLTE3IC0zOSAxOSAtMjkgMzAgLTMyIDM2IC03IDUgMTggMTUgMjQgMTEzIDY5IGw2MCAyNyAtMzggNCBjLTM4JiMxMDszIC0zOCAzIC0yMiAyOCAyNCAzNyAxMCAyOCAtMjYgLTE2eiIvPiYjeGE7PHBhdGggZD0iTTEwNzk3IDQyODMgYy00IC0zIC03IC0xMSAtNyAtMTcgMCAtNiA1IC01IDEyIDIgNiA2IDkgMTQgNyAxNyAtMyAzJiMxMDstOSAyIC0xMiAtMnoiLz4mI3hhOzxwYXRoIGQ9Ik0xMDg0MCA0MjYwIGMwIC01IDUgLTEwIDEwIC0xMCA2IDAgMTAgNSAxMCAxMCAwIDYgLTQgMTAgLTEwIDEwIC01JiMxMDswIC0xMCAtNCAtMTAgLTEweiIvPiYjeGE7PHBhdGggZD0iTTExODUwIDQyMTkgYy0xMjQgLTQwIC01MjYgLTE1OSAtNTM2IC0xNTkgLTE1IDAgLTU0IC00NCAtNTQgLTYxIDAmIzEwOy0yNyAxMSAtMjkgNTMgLTggMjIgMTIgMTcxIDY1IDMzMSAxMTkgMzM1IDExMyAzMjYgMTA5IDMyNiAxMjEgMCAxNCAtNTkgOCYjMTA7LTEyMCAtMTJ6Ii8+JiN4YTs8cGF0aCBkPSJNOTg5MCA0MjE3IGMtMzYgLTE4IC02NiAtODIgLTUyIC0xMTMgMjIgLTQ3IDEwNyAtMzkgMTMxIDEyIDI0IDU0IDUmIzEwOzExNCAtMzcgMTE0IC05IDAgLTI4IC02IC00MiAtMTN6Ii8+JiN4YTs8cGF0aCBkPSJNMTExNTMgNDA2NSBjLTM5IC0xNyAtNDcgLTU1IC0xMiAtNTUgMzYgMCA4OSAzMSA4OSA1MSAwIDIzIC0zMCAyNSYjMTA7LTc3IDR6Ii8+JiN4YTs8cGF0aCBkPSJNMTExOTcgMzk3MyBjLTkgLTkgLTggLTI1IDIgLTQyIDggLTEyIDEyIC0xMiAyNSAtMiAyMiAxOSAyMSA1MSAtMiYjMTA7NTEgLTEwIDAgLTIyIC0zIC0yNSAtN3oiLz4mI3hhOzxwYXRoIGQ9Ik0xMTE1IDIyMzEgYy0xNiAtMTAgLTQzIC0zMyAtNjAgLTUwIC0yNSAtMjcgLTMwIC00MSAtMzMgLTk4IC01IC04MCYjMTA7MTAgLTc5IDM0IDQgMTMgNDMgMjggNjcgNjUgMTAzIDI3IDI2IDQ5IDUwIDQ5IDU0IDAgMTIgLTI1IDYgLTU1IC0xM3oiLz4mI3hhOzxwYXRoIGQ9Ik0xMTEyIDE5MzMgYy03IC0zIC0xOSAtMTggLTI3IC0zMyAtMTQgLTI3IC0xNCAtMzAgMTIgLTUwIDI2IC0yMCAyOCYjMTA7LTIxIDQxIC0zIDE0IDIwIDEzIDg1IC0zIDg5IC01IDEgLTE2IDAgLTIzIC0zeiIvPiYjeGE7PHBhdGggZD0iTTEwMjMgMTgxNCBjLTkgLTI0IDIwIC0xMDkgMzcgLTEwOSAyMSAwIDI0IDU4IDUgOTQgLTE3IDM0IC0zMiAzOSYjMTA7LTQyIDE1eiIvPiYjeGE7PC9nPiYjeGE7PC9zdmc+;" parent="1" vertex="1">
          <mxGeometry x="770" y="120.25" width="241.82" height="199.5" as="geometry" />
        </mxCell>
        <mxCell id="FAvYL7a3MEpKTh5j457e-18" value="注目のレース" style="shape=table;startSize=30;container=1;collapsible=0;childLayout=tableLayout;fontStyle=1;align=center;pointerEvents=1;dashed=1;fontFamily=Permanent Marker;fontSource=https%3A%2F%2Ffonts.googleapis.com%2Fcss%3Ffamily%3DPermanent%2BMarker;fontSize=12;fontColor=#FF4747;strokeColor=#B3B3B3;fillColor=#E3E3E3;" parent="1" vertex="1">
          <mxGeometry x="80" y="360" width="1040" height="150" as="geometry" />
        </mxCell>
        <mxCell id="FAvYL7a3MEpKTh5j457e-19" value="" style="shape=partialRectangle;html=1;whiteSpace=wrap;collapsible=0;dropTarget=0;pointerEvents=0;fillColor=none;top=0;left=0;bottom=0;right=0;points=[[0,0.5],[1,0.5]];portConstraint=eastwest;" parent="FAvYL7a3MEpKTh5j457e-18" vertex="1">
          <mxGeometry y="30" width="1040" height="40" as="geometry" />
        </mxCell>
        <mxCell id="FAvYL7a3MEpKTh5j457e-20" value="Race_AAAA" style="shape=partialRectangle;html=1;whiteSpace=wrap;connectable=0;fillColor=none;top=0;left=0;bottom=0;right=0;overflow=hidden;pointerEvents=1;" parent="FAvYL7a3MEpKTh5j457e-19" vertex="1">
          <mxGeometry width="347" height="40" as="geometry" />
        </mxCell>
        <mxCell id="FAvYL7a3MEpKTh5j457e-21" value="Race_Suumary" style="shape=partialRectangle;html=1;whiteSpace=wrap;connectable=0;fillColor=none;top=0;left=0;bottom=0;right=0;overflow=hidden;pointerEvents=1;" parent="FAvYL7a3MEpKTh5j457e-19" vertex="1">
          <mxGeometry x="347" width="346" height="40" as="geometry" />
        </mxCell>
        <mxCell id="FAvYL7a3MEpKTh5j457e-22" value="YYYY/MM/DD" style="shape=partialRectangle;html=1;whiteSpace=wrap;connectable=0;fillColor=none;top=0;left=0;bottom=0;right=0;overflow=hidden;pointerEvents=1;" parent="FAvYL7a3MEpKTh5j457e-19" vertex="1">
          <mxGeometry x="693" width="347" height="40" as="geometry" />
        </mxCell>
        <mxCell id="FAvYL7a3MEpKTh5j457e-23" value="" style="shape=partialRectangle;html=1;whiteSpace=wrap;collapsible=0;dropTarget=0;pointerEvents=0;fillColor=none;top=0;left=0;bottom=0;right=0;points=[[0,0.5],[1,0.5]];portConstraint=eastwest;" parent="FAvYL7a3MEpKTh5j457e-18" vertex="1">
          <mxGeometry y="70" width="1040" height="40" as="geometry" />
        </mxCell>
        <mxCell id="FAvYL7a3MEpKTh5j457e-24" value="" style="shape=partialRectangle;html=1;whiteSpace=wrap;connectable=0;fillColor=none;top=0;left=0;bottom=0;right=0;overflow=hidden;pointerEvents=1;" parent="FAvYL7a3MEpKTh5j457e-23" vertex="1">
          <mxGeometry width="347" height="40" as="geometry" />
        </mxCell>
        <mxCell id="FAvYL7a3MEpKTh5j457e-25" value="" style="shape=partialRectangle;html=1;whiteSpace=wrap;connectable=0;fillColor=none;top=0;left=0;bottom=0;right=0;overflow=hidden;pointerEvents=1;" parent="FAvYL7a3MEpKTh5j457e-23" vertex="1">
          <mxGeometry x="347" width="346" height="40" as="geometry" />
        </mxCell>
        <mxCell id="FAvYL7a3MEpKTh5j457e-26" value="" style="shape=partialRectangle;html=1;whiteSpace=wrap;connectable=0;fillColor=none;top=0;left=0;bottom=0;right=0;overflow=hidden;pointerEvents=1;" parent="FAvYL7a3MEpKTh5j457e-23" vertex="1">
          <mxGeometry x="693" width="347" height="40" as="geometry" />
        </mxCell>
        <mxCell id="FAvYL7a3MEpKTh5j457e-27" value="" style="shape=partialRectangle;html=1;whiteSpace=wrap;collapsible=0;dropTarget=0;pointerEvents=0;fillColor=none;top=0;left=0;bottom=0;right=0;points=[[0,0.5],[1,0.5]];portConstraint=eastwest;" parent="FAvYL7a3MEpKTh5j457e-18" vertex="1">
          <mxGeometry y="110" width="1040" height="40" as="geometry" />
        </mxCell>
        <mxCell id="FAvYL7a3MEpKTh5j457e-28" value="" style="shape=partialRectangle;html=1;whiteSpace=wrap;connectable=0;fillColor=none;top=0;left=0;bottom=0;right=0;overflow=hidden;pointerEvents=1;" parent="FAvYL7a3MEpKTh5j457e-27" vertex="1">
          <mxGeometry width="347" height="40" as="geometry" />
        </mxCell>
        <mxCell id="FAvYL7a3MEpKTh5j457e-29" value="" style="shape=partialRectangle;html=1;whiteSpace=wrap;connectable=0;fillColor=none;top=0;left=0;bottom=0;right=0;overflow=hidden;pointerEvents=1;" parent="FAvYL7a3MEpKTh5j457e-27" vertex="1">
          <mxGeometry x="347" width="346" height="40" as="geometry" />
        </mxCell>
        <mxCell id="FAvYL7a3MEpKTh5j457e-30" value="" style="shape=partialRectangle;html=1;whiteSpace=wrap;connectable=0;fillColor=none;top=0;left=0;bottom=0;right=0;overflow=hidden;pointerEvents=1;" parent="FAvYL7a3MEpKTh5j457e-27" vertex="1">
          <mxGeometry x="693" width="347" height="40" as="geometry" />
        </mxCell>
        <mxCell id="FAvYL7a3MEpKTh5j457e-31" value="開催中レース" style="shape=table;startSize=30;container=1;collapsible=0;childLayout=tableLayout;fontStyle=1;align=center;pointerEvents=1;dashed=1;fontFamily=Permanent Marker;fontSource=https%3A%2F%2Ffonts.googleapis.com%2Fcss%3Ffamily%3DPermanent%2BMarker;fontSize=12;fontColor=#FF4747;strokeColor=#B3B3B3;fillColor=#E3E3E3;" parent="1" vertex="1">
          <mxGeometry x="80" y="540" width="1040" height="150" as="geometry" />
        </mxCell>
        <mxCell id="FAvYL7a3MEpKTh5j457e-32" value="" style="shape=partialRectangle;html=1;whiteSpace=wrap;collapsible=0;dropTarget=0;pointerEvents=0;fillColor=none;top=0;left=0;bottom=0;right=0;points=[[0,0.5],[1,0.5]];portConstraint=eastwest;" parent="FAvYL7a3MEpKTh5j457e-31" vertex="1">
          <mxGeometry y="30" width="1040" height="40" as="geometry" />
        </mxCell>
        <mxCell id="FAvYL7a3MEpKTh5j457e-33" value="Race_AAAA" style="shape=partialRectangle;html=1;whiteSpace=wrap;connectable=0;fillColor=none;top=0;left=0;bottom=0;right=0;overflow=hidden;pointerEvents=1;" parent="FAvYL7a3MEpKTh5j457e-32" vertex="1">
          <mxGeometry width="347" height="40" as="geometry" />
        </mxCell>
        <mxCell id="FAvYL7a3MEpKTh5j457e-34" value="Race_Suumary" style="shape=partialRectangle;html=1;whiteSpace=wrap;connectable=0;fillColor=none;top=0;left=0;bottom=0;right=0;overflow=hidden;pointerEvents=1;" parent="FAvYL7a3MEpKTh5j457e-32" vertex="1">
          <mxGeometry x="347" width="346" height="40" as="geometry" />
        </mxCell>
        <mxCell id="FAvYL7a3MEpKTh5j457e-35" value="YYYY/MM/DD" style="shape=partialRectangle;html=1;whiteSpace=wrap;connectable=0;fillColor=none;top=0;left=0;bottom=0;right=0;overflow=hidden;pointerEvents=1;" parent="FAvYL7a3MEpKTh5j457e-32" vertex="1">
          <mxGeometry x="693" width="347" height="40" as="geometry" />
        </mxCell>
        <mxCell id="FAvYL7a3MEpKTh5j457e-36" value="" style="shape=partialRectangle;html=1;whiteSpace=wrap;collapsible=0;dropTarget=0;pointerEvents=0;fillColor=none;top=0;left=0;bottom=0;right=0;points=[[0,0.5],[1,0.5]];portConstraint=eastwest;" parent="FAvYL7a3MEpKTh5j457e-31" vertex="1">
          <mxGeometry y="70" width="1040" height="40" as="geometry" />
        </mxCell>
        <mxCell id="FAvYL7a3MEpKTh5j457e-37" value="" style="shape=partialRectangle;html=1;whiteSpace=wrap;connectable=0;fillColor=none;top=0;left=0;bottom=0;right=0;overflow=hidden;pointerEvents=1;" parent="FAvYL7a3MEpKTh5j457e-36" vertex="1">
          <mxGeometry width="347" height="40" as="geometry" />
        </mxCell>
        <mxCell id="FAvYL7a3MEpKTh5j457e-38" value="" style="shape=partialRectangle;html=1;whiteSpace=wrap;connectable=0;fillColor=none;top=0;left=0;bottom=0;right=0;overflow=hidden;pointerEvents=1;" parent="FAvYL7a3MEpKTh5j457e-36" vertex="1">
          <mxGeometry x="347" width="346" height="40" as="geometry" />
        </mxCell>
        <mxCell id="FAvYL7a3MEpKTh5j457e-39" value="" style="shape=partialRectangle;html=1;whiteSpace=wrap;connectable=0;fillColor=none;top=0;left=0;bottom=0;right=0;overflow=hidden;pointerEvents=1;" parent="FAvYL7a3MEpKTh5j457e-36" vertex="1">
          <mxGeometry x="693" width="347" height="40" as="geometry" />
        </mxCell>
        <mxCell id="FAvYL7a3MEpKTh5j457e-40" value="" style="shape=partialRectangle;html=1;whiteSpace=wrap;collapsible=0;dropTarget=0;pointerEvents=0;fillColor=none;top=0;left=0;bottom=0;right=0;points=[[0,0.5],[1,0.5]];portConstraint=eastwest;" parent="FAvYL7a3MEpKTh5j457e-31" vertex="1">
          <mxGeometry y="110" width="1040" height="40" as="geometry" />
        </mxCell>
        <mxCell id="FAvYL7a3MEpKTh5j457e-41" value="" style="shape=partialRectangle;html=1;whiteSpace=wrap;connectable=0;fillColor=none;top=0;left=0;bottom=0;right=0;overflow=hidden;pointerEvents=1;" parent="FAvYL7a3MEpKTh5j457e-40" vertex="1">
          <mxGeometry width="347" height="40" as="geometry" />
        </mxCell>
        <mxCell id="FAvYL7a3MEpKTh5j457e-42" value="" style="shape=partialRectangle;html=1;whiteSpace=wrap;connectable=0;fillColor=none;top=0;left=0;bottom=0;right=0;overflow=hidden;pointerEvents=1;" parent="FAvYL7a3MEpKTh5j457e-40" vertex="1">
          <mxGeometry x="347" width="346" height="40" as="geometry" />
        </mxCell>
        <mxCell id="FAvYL7a3MEpKTh5j457e-43" value="" style="shape=partialRectangle;html=1;whiteSpace=wrap;connectable=0;fillColor=none;top=0;left=0;bottom=0;right=0;overflow=hidden;pointerEvents=1;" parent="FAvYL7a3MEpKTh5j457e-40" vertex="1">
          <mxGeometry x="693" width="347" height="40" as="geometry" />
        </mxCell>
        <mxCell id="FAvYL7a3MEpKTh5j457e-46" value="" style="rounded=0;whiteSpace=wrap;html=1;dashed=1;fontFamily=Permanent Marker;fontSource=https%3A%2F%2Ffonts.googleapis.com%2Fcss%3Ffamily%3DPermanent%2BMarker;fontSize=12;fontColor=#FF4747;strokeColor=#B3B3B3;fillColor=#222222;" parent="1" vertex="1">
          <mxGeometry x="40" y="820" width="1150" height="40" as="geometry" />
        </mxCell>
        <mxCell id="FAvYL7a3MEpKTh5j457e-47" value="Copyrigh©Suguru.Ueda" style="text;html=1;strokeColor=none;fillColor=none;align=center;verticalAlign=middle;whiteSpace=wrap;rounded=0;dashed=1;fontFamily=Helvetica;fontSize=12;fontColor=#FFFFFF;" parent="1" vertex="1">
          <mxGeometry x="595" y="830" width="40" height="20" as="geometry" />
        </mxCell>
      </root>
    </mxGraphModel>
  </diagram>
</mxfile>
